<?xml version="1.0" standalone="no"?>
<!DOCTYPE svg PUBLIC "-//W3C//DTD SVG 1.1//EN" "http://www.w3.org/Graphics/SVG/1.1/DTD/svg11.dtd" >
<svg>
<metadata>
Created by FontForge 20090914 at Fri Feb 24 07:31:36 2012
 By root
Freeware by Tim Johnson, 1999
</metadata>
<defs>
<font id="Macromedia" horiz-adv-x="690" >
  <font-face 
    font-family="Macromedia"
    font-weight="900"
    font-stretch="normal"
    units-per-em="1000"
    panose-1="2 0 10 5 6 0 0 2 0 4"
    ascent="800"
    descent="-200"
    x-height="548"
    cap-height="780"
    bbox="-210 -225 1282 985"
    underline-thickness="15"
    underline-position="-53"
    unicode-range="U+0008-U+2122"
  />
<missing-glyph horiz-adv-x="342" 
 />
    <glyph glyph-name=".notdef" horiz-adv-x="342" 
 />
    <glyph glyph-name="ring" horiz-adv-x="416" 
d="M208 556q-27 0 -51 10t-41.5 28t-28 41.5t-10.5 50.5t10 51t28 42t42 28t51 10t51 -10t42 -28t28 -42t10 -51t-10.5 -50.5t-28 -41.5t-41.5 -28t-51 -10zM208 720q-14 0 -23.5 -10t-9.5 -24t9.5 -23.5t23.5 -9.5t23 9.5t9 23.5t-9 24t-23 10z" />
    <glyph glyph-name="fraction" horiz-adv-x="250" 
d="M-76 -11h-134l535 791h134z" />
    <glyph glyph-name="fi" horiz-adv-x="718" 
d="M447 -9v397h-145v-397h-213v397h-75v158h77v40q0 43 16 78.5t45.5 61t72.5 40t97 14.5h119v-160h-83q-24 0 -40 -12.5t-16 -38.5v-23h357v-555h-212z" />
    <glyph glyph-name="fl" horiz-adv-x="711" 
d="M440 -9v789h212v-789h-212zM352 620q-23 0 -36.5 -12t-13.5 -28v-34h100v-158h-100v-397h-213v397h-75v158h77v62q0 38 15 70t42.5 54.5t66 35t86.5 12.5h109v-160h-58z" />
    <glyph glyph-name="Lslash" horiz-adv-x="739" 
d="M94 -9v281l-91 -36v137l91 36v371h250v-271l207 77v-136l-207 -77v-195h338l64 -187h-652z" />
    <glyph glyph-name="lslash" horiz-adv-x="362" 
d="M286 336v-345h-211v261l-66 -26v129l66 26v399h211v-315l66 27v-129z" />
    <glyph glyph-name="Zcaron" horiz-adv-x="777" 
d="M435 787h-121l-137 182h155l43 -59l43 59h155zM371 178h380v-188h-732v151l404 455h-388v184h722v-163z" />
    <glyph glyph-name="zcaron" horiz-adv-x="614" 
d="M267 554h-121l-137 182h155l43 -59l43 59h155zM21 -9v127l254 271h-246v159h547v-132l-266 -269h279v-156h-568z" />
    <glyph glyph-name="space" unicode=" " horiz-adv-x="356" 
 />
    <glyph glyph-name="exclam" unicode="!" horiz-adv-x="350" 
d="M263 235h-175l-29 545h236zM89 -9v211h176v-211h-176z" />
    <glyph glyph-name="quotedbl" unicode="&#x22;" horiz-adv-x="556" 
d="M500 512h-179l-27 270h238zM231 512h-180l-27 270h239z" />
    <glyph glyph-name="numbersign" unicode="#" horiz-adv-x="663" 
d="M619 412h-155l-8 -58h152l-20 -129h-151l-33 -234h-77l32 234h-102l-33 -234h-78l34 234h-167l19 129h166l8 58h-163l21 138h162l33 230h76l-32 -230h102l33 230h78l-33 -230h157zM283 412l-8 -58h102l9 58h-103z" />
    <glyph glyph-name="dollar" unicode="$" horiz-adv-x="746" 
d="M406 -6v-52h-91v54q-133 8 -214 60.5t-93 153.5q0 8 -0.5 18t1.5 22l230 25q0 -21 2.5 -39t10.5 -32.5t23 -24.5t40 -15v156q-73 17 -127 36t-90 46t-53.5 63.5t-17.5 89.5q0 54 21.5 94.5t59.5 67.5t91 42t116 19v29h91v-29q64 -4 113 -19t84.5 -39t58.5 -56t35 -70
q2 -7 3.5 -21.5t3.5 -31.5l-228 -26q-5 14 -8.5 26t-8.5 23q-13 28 -53 40v-127q84 -15 143.5 -36t97 -49.5t54.5 -67t17 -87.5q0 -50 -16 -92.5t-52.5 -74.5t-96 -52t-147.5 -24zM315 609q-44 -5 -59 -19t-15 -34q0 -9 2.5 -17t10 -15t22.5 -13t39 -12v110zM406 297v-138
q48 5 67 23t19 44t-19 43t-67 28z" />
    <glyph glyph-name="percent" unicode="%" horiz-adv-x="1303" 
d="M1003 -13q-144 0 -211 62.5t-67 187.5q0 129 71 189.5t207 60.5q134 0 206.5 -60t72.5 -190q0 -126 -72 -188t-207 -62zM489 -10h-136l456 789h136zM300 280q-144 0 -211 62.5t-67 187.5q0 129 71 189.5t207 60.5q135 0 207 -59.5t72 -190.5q0 -125 -72 -187.5
t-207 -62.5zM1003 348q-38 0 -59.5 -23.5t-21.5 -87.5q0 -32 6 -53.5t16.5 -34.5t25.5 -18t33 -5q36 0 59 24.5t23 86.5q0 64 -22.5 87.5t-59.5 23.5zM300 641q-38 0 -59.5 -23.5t-21.5 -87.5q0 -65 22.5 -88t58.5 -23q37 0 59.5 23.5t22.5 87.5t-22.5 87.5t-59.5 23.5z" />
    <glyph glyph-name="ampersand" unicode="&#x26;" horiz-adv-x="888" 
d="M645 -11q-9 1 -21 7t-24.5 14.5t-24.5 17.5t-20 16q-38 -28 -95.5 -43.5t-138.5 -15.5q-69 0 -123 17t-91.5 48.5t-57.5 76t-20 99.5q0 48 14 85.5t40 67.5t62.5 54t80.5 44q-17 29 -27 62t-10 63q0 52 25.5 87.5t65.5 57t88 30.5t92 9t88.5 -10t80 -32t57.5 -56.5
t22 -83.5q0 -36 -14 -65.5t-37 -53.5t-53 -42t-63 -31q17 -26 37 -51l40 -49q11 10 26 26.5t31 36t30 40t24 39.5l125 -112q-11 -22 -27.5 -46t-34 -46.5t-35 -42t-31.5 -33.5q9 -11 30 -31.5t47 -41t55.5 -37.5t56.5 -21zM467 633q-20 0 -32.5 -11t-12.5 -30q0 -13 6 -28.5
t16 -31.5q38 14 51 29.5t13 35.5q0 36 -41 36zM383 249l-36 45.5t-26 37.5q-59 -32 -59 -87q0 -43 29 -66.5t77 -23.5q40 0 75 20q-10 11 -26.5 31t-33.5 43z" />
    <glyph glyph-name="quotesingle" unicode="'" horiz-adv-x="281" 
d="M228 512h-179l-28 270h238z" />
    <glyph glyph-name="parenleft" unicode="(" horiz-adv-x="425" 
d="M348 -200q-56 13 -112 53.5t-102 105.5t-74.5 152.5t-28.5 192.5q0 120 32.5 207.5t80.5 147t102 92.5t98 43l31 -191q-20 -8 -42.5 -31t-42 -60.5t-32.5 -89.5t-13 -118q0 -68 14.5 -122.5t35 -94t44 -63.5t41.5 -31z" />
    <glyph glyph-name="parenright" unicode=")" horiz-adv-x="425" 
d="M76 -200l-31 194q19 6 42.5 30t43.5 64t34 94.5t14 120.5q0 67 -13.5 119t-33 89.5t-42.5 60.5t-41 31l32 191q51 -10 106 -48t101 -100.5t75.5 -149t29.5 -193.5q0 -117 -31.5 -205.5t-79 -150t-103 -98t-103.5 -49.5z" />
    <glyph glyph-name="asterisk" unicode="*" horiz-adv-x="584" 
d="M465 345l-102 68l8 -124h-156l8 125l-105 -69l-78 135l111 56l-110 54l77 135l105 -69l-8 124h156l-8 -122l102 68l78 -135l-112 -55l113 -57z" />
    <glyph glyph-name="plus" unicode="+" horiz-adv-x="499" 
d="M325 246v-168h-153v168h-156v151h156v168h153v-168h157v-151h-157z" />
    <glyph glyph-name="comma" unicode="," horiz-adv-x="365" 
d="M126 -151l-54 67q43 13 59 34t18 41h-84v214h236v-210q0 -29 -15 -53.5t-39.5 -44t-56 -32t-64.5 -16.5z" />
    <glyph glyph-name="hyphen" unicode="-" horiz-adv-x="541" 
d="M61 277v182h419v-182h-419z" />
    <glyph glyph-name="period" unicode="." horiz-adv-x="365" 
d="M64 -9v214h237v-214h-237z" />
    <glyph glyph-name="slash" unicode="/" horiz-adv-x="433" 
d="M121 -190l325 969h-182l-326 -969h183z" />
    <glyph glyph-name="zero" unicode="0" horiz-adv-x="843" 
d="M418 -14q-89 0 -160 22.5t-120.5 70.5t-75.5 122t-26 177q0 113 26.5 190.5t76.5 125.5t121 69t160 21q100 0 171.5 -26t117.5 -77t67 -126.5t21 -175.5q0 -96 -21 -169.5t-66.5 -123t-117.5 -75t-174 -25.5zM422 612q-33 0 -58 -10.5t-42 -36t-25.5 -67.5t-8.5 -105
q0 -62 8.5 -105t25 -70t40.5 -39t56 -12q34 0 58 12t39 38.5t22 69t7 102.5q0 64 -7.5 106.5t-22.5 68.5t-38 37t-54 11z" />
    <glyph glyph-name="one" unicode="1" horiz-adv-x="505" 
d="M176 -9v535q-28 -18 -70.5 -30t-80.5 -18v164q75 15 131.5 51t82.5 87h182v-789h-245z" />
    <glyph glyph-name="two" unicode="2" horiz-adv-x="849" 
d="M501 261q-71 -26 -106 -45t-50 -39h447v-186h-756q1 88 24.5 153.5t65.5 114t100 84t128 62.5q58 22 92 38.5t51 31.5t22 30t5 34q0 36 -23 51t-69 15q-52 0 -79.5 -16t-35.5 -58q-1 -5 -1 -11v-10v-30l-271 -18q-2 16 -2.5 31.5t1.5 30.5q10 77 45 127.5t86.5 80.5
t116 42t134.5 12q78 0 146.5 -14.5t118.5 -44.5t79 -76t29 -108q0 -56 -13 -99t-47 -76.5t-91.5 -59.5t-146.5 -47z" />
    <glyph glyph-name="three" unicode="3" horiz-adv-x="823" 
d="M393 -14q-102 0 -172 18t-113 50.5t-62.5 78t-20.5 101.5q0 13 1 26t3 29l261 -9q0 -17 -1.5 -26t-0.5 -16q1 -23 7.5 -37.5t21 -23.5t37 -12.5t56.5 -3.5q28 0 47.5 4t31.5 14t17 28t5 45q0 45 -26 63t-77 18h-187v166h162q34 0 55.5 3.5t33.5 11t16.5 19.5t4.5 29
q0 22 -18.5 33.5t-70.5 11.5q-48 0 -73.5 -11.5t-28.5 -37.5q-1 -4 -0.5 -11t2.5 -18l-262 -6q-7 54 7 94t42.5 69.5t68 48.5t82.5 30t86.5 15.5t80.5 4.5q60 0 123 -10.5t114.5 -35.5t84 -66t32.5 -102q0 -60 -20 -96t-62 -54q48 -20 74.5 -63t26.5 -115q0 -73 -29.5 -122
t-81 -79t-123 -43t-155.5 -13z" />
    <glyph glyph-name="four" unicode="4" horiz-adv-x="856" 
d="M704 131v-140h-247v138h-424v184l346 467h323l1 -454h109v-195h-108zM456 538l-3 -4q-3 -3 -4 -7l-149 -201h156v203v9z" />
    <glyph glyph-name="five" unicode="5" horiz-adv-x="828" 
d="M418 -14q-84 0 -152.5 11.5t-118.5 38t-80 68.5t-37 102q-1 6 -1.5 12t-0.5 13t-0.5 15t-1.5 17l249 12q6 -58 35 -88t95 -30q65 0 91.5 27t26.5 90q0 60 -27 85t-95 25q-29 0 -47 -4t-30 -12t-19 -19.5t-13 -25.5l-238 10l34 447h674l-43 -176h-442l-7 -84
q45 20 89 28.5t101 8.5q68 0 128.5 -14.5t106 -47.5t72 -85t26.5 -127q0 -80 -25 -136t-73 -92t-117.5 -52.5t-159.5 -16.5z" />
    <glyph glyph-name="six" unicode="6" horiz-adv-x="820" 
d="M419 -14q-86 0 -156 21t-120 63t-78.5 104.5t-30.5 145.5q-1 29 -0.5 62.5t0.5 54.5q1 91 33 156.5t86 108t126 62.5t153 20q75 0 133.5 -16t99.5 -43t65.5 -63t32.5 -76q3 -10 4.5 -21.5t3.5 -25.5l-244 -13q-3 8 -6.5 15.5t-8.5 15.5q-10 29 -30 43t-62 14
q-54 0 -86 -31t-42 -106q35 20 83.5 29.5t97.5 9.5q70 0 128 -13.5t99.5 -43t64.5 -77t23 -114.5q0 -78 -29.5 -132t-79.5 -87t-117 -48t-143 -15zM405 348q-61 0 -87.5 -20.5t-26.5 -74.5t30 -75t84 -21q63 0 89 22.5t26 74.5q0 54 -27 74t-88 20z" />
    <glyph glyph-name="seven" unicode="7" horiz-adv-x="760" 
d="M517 303q-22 -32 -41 -64t-33.5 -69t-23.5 -81t-10 -98h-308q0 86 23.5 157t63.5 133.5t91.5 118.5l107.5 112l43 44t31 37h-459v187h754v-78q-7 -48 -21.5 -91.5t-41.5 -89.5t-69.5 -99t-106.5 -119z" />
    <glyph glyph-name="eight" unicode="8" horiz-adv-x="802" 
d="M397 -15q-70 0 -136.5 13.5t-118.5 44t-84 79.5t-32 120q0 146 100 189q-35 20 -60.5 56.5t-25.5 84.5q0 57 29 97.5t78.5 66.5t116 38t141.5 12q61 0 124 -10t113.5 -35t82.5 -67.5t32 -106.5q0 -51 -22 -85t-57 -52q42 -19 69.5 -63.5t27.5 -119.5q0 -73 -33 -123
t-86 -81t-121 -44.5t-138 -13.5zM400 621q-31 0 -50.5 -3.5t-31 -11.5t-15.5 -20.5t-4 -30.5q0 -34 21 -50.5t80 -16.5q58 0 78 16.5t20 51.5t-20 50t-78 15zM400 331q-32 0 -52.5 -4t-33 -14t-17.5 -26t-5 -41q0 -48 24 -66.5t85 -18.5q33 0 54.5 4.5t34.5 14.5t18.5 26.5
t5.5 39.5q0 24 -5.5 40.5t-19 26.5t-35 14t-54.5 4z" />
    <glyph glyph-name="nine" unicode="9" horiz-adv-x="835" 
d="M399 -14q-158 0 -242 55t-101 149q-3 10 -4 21l-2 22l248 10q2 -6 3 -14t4 -14q11 -34 34.5 -47t68.5 -13q57 0 86 30.5t37 109.5q-39 -20 -82 -29.5t-97 -9.5q-68 0 -126 13.5t-101 43.5t-67.5 77.5t-24.5 115.5q0 78 29 131.5t79 86t117 47t142 14.5q77 0 145.5 -16
t120 -54t83.5 -100t37 -154q0 -10 0.5 -25.5t0.5 -33.5v-35v-30q0 -101 -31 -168t-83.5 -108t-123.5 -58t-150 -17zM405 612q-57 0 -80 -22t-23 -74q0 -54 28 -74.5t76 -20.5q54 0 81 20.5t27 74.5t-27.5 75t-81.5 21z" />
    <glyph glyph-name="colon" unicode=":" horiz-adv-x="364" 
d="M66 350v215h232v-215h-232zM66 -9v214h232v-214h-232z" />
    <glyph glyph-name="semicolon" unicode=";" horiz-adv-x="364" 
d="M66 350v215h234v-215h-234zM124 -150l-53 67q39 9 56.5 31.5t21.5 42.5h-83v214h234v-208q0 -27 -14 -52.5t-38 -45.5t-56 -33t-68 -16z" />
    <glyph glyph-name="less" unicode="&#x3c;" horiz-adv-x="403" 
d="M242 339l114 85v229l-318 -246v-132l316 -245v227z" />
    <glyph glyph-name="equal" unicode="=" horiz-adv-x="498" 
d="M58 331v181h382v-181h-382zM58 99v181h382v-181h-382z" />
    <glyph glyph-name="greater" unicode="&#x3e;" horiz-adv-x="399" 
d="M47 28l317 245v132l-319 246v-230l114 -84l-112 -83v-226z" />
    <glyph glyph-name="question" unicode="?" horiz-adv-x="761" 
d="M555 367q-21 -13 -35 -23t-22.5 -19t-13 -18.5t-5.5 -21.5q0 -3 -1 -13.5t-1 -22.5v-12h-212v15q0 10 0.5 19.5t0.5 17.5v11q3 52 34 98t97 84q27 15 43 27t25 24t12 26t3 32q0 21 -18 35.5t-69 14.5q-45 0 -78.5 -21t-39.5 -67q-1 -3 -1 -21v-32l-244 12q0 16 0.5 32
t1.5 21q7 60 35 103.5t73 72t105 42t132 13.5q78 0 141 -13.5t107 -41.5t67.5 -69.5t23.5 -98.5q0 -44 -10.5 -75.5t-31 -55t-50.5 -41t-69 -34.5zM263 -9v211h215v-211h-215z" />
    <glyph glyph-name="at" unicode="@" horiz-adv-x="813" 
d="M611 194q-48 0 -77 14t-43 41q-24 -23 -58 -37t-89 -14q-75 0 -117.5 32.5t-42.5 95.5q0 37 16 62.5t41.5 41t56.5 23.5t61 11q36 4 59.5 8t47.5 11q-2 14 -14.5 21.5t-55.5 7.5q-27 0 -51 -9.5t-38 -26.5q-5 -5 -8 -12t-5 -13l-88 74q6 7 7.5 8t1.5 2l3 3q1 3 5 7
q26 34 76 54.5t123 20.5q97 0 145 -38.5t48 -98.5v-154q0 -9 6 -15t18 -6q29 0 42 25t13 85q0 71 -21 121.5t-58.5 83t-90.5 47.5t-117 15t-115.5 -19.5t-88 -57t-56 -92.5t-19.5 -126q0 -78 21.5 -135t59 -95t89 -56.5t111.5 -18.5q50 0 88.5 7.5t68.5 19.5t52.5 28.5
t39.5 34.5l63 -80q-26 -27 -56.5 -48t-68 -34.5t-83.5 -20.5t-103 -7q-86 0 -157 25.5t-123 76t-80.5 125t-28.5 172.5t27.5 173t78 126t122 77t158.5 26q88 0 160.5 -22t125 -66t81.5 -110.5t29 -156.5q0 -60 -14 -104.5t-39 -74t-60.5 -44t-78.5 -14.5zM423 373
q-28 -2 -43.5 -5t-23.5 -7t-10 -9.5t-2 -11.5q0 -13 12.5 -20.5t34.5 -7.5q55 0 70 29q1 5 2 16.5t1 20.5l-20 -2t-21 -3z" />
    <glyph glyph-name="A" unicode="A" horiz-adv-x="834" 
d="M593 -9l-50 143h-252l-48 -143h-254l293 789h272l292 -789h-253zM430 470q-1 8 -5 20t-7 20l-1 6l-2 -5q-2 -9 -6 -20.5t-5 -20.5l-52 -164h131z" />
    <glyph glyph-name="B" unicode="B" horiz-adv-x="875" 
d="M545 -9h-481v789h486q46 0 93 -8.5t84.5 -30t61.5 -59.5t24 -97q0 -49 -18 -90.5t-56 -64.5q49 -23 79.5 -68t30.5 -120q0 -50 -14 -95t-48.5 -80t-93 -55.5t-148.5 -20.5zM477 602h-170v-109h173q43 0 59.5 16.5t16.5 42.5q0 27 -16 38.5t-63 11.5zM492 324h-185v-152
h186q60 0 81.5 18t21.5 62q0 43 -23 57.5t-81 14.5z" />
    <glyph glyph-name="C" unicode="C" horiz-adv-x="835" 
d="M545 475q-14 69 -40 98t-79 29q-34 0 -59 -10.5t-41.5 -36t-25 -67t-8.5 -103.5q0 -64 9.5 -106t27 -67.5t42 -36t53.5 -10.5q27 0 47 5.5t35 20.5t25 41t16 67l261 -26q-13 -73 -40 -127.5t-72 -91t-110.5 -54.5t-155.5 -18q-94 0 -167.5 25t-123.5 76t-76.5 128
t-26.5 182q0 106 28 181.5t79.5 123t124.5 69.5t163 22q176 0 266.5 -73.5t114.5 -215.5z" />
    <glyph glyph-name="D" unicode="D" horiz-adv-x="883" 
d="M452 -9h-388v789h406q86 0 155.5 -19t118 -65t75 -124.5t26.5 -196.5q0 -96 -19 -168t-64.5 -120t-121 -72t-188.5 -24zM441 600h-128v-427h121q33 0 61 8t48.5 30.5t32 63.5t11.5 107q0 70 -13 113t-34 66.5t-47 31t-52 7.5z" />
    <glyph glyph-name="E" unicode="E" horiz-adv-x="762" 
d="M64 -9v789h679l-55 -183h-382v-109h358v-178h-358v-134h400l65 -185h-707z" />
    <glyph glyph-name="F" unicode="F" horiz-adv-x="735" 
d="M692 597h-379v-106h355v-184h-355v-316h-249v789h687z" />
    <glyph glyph-name="G" unicode="G" horiz-adv-x="867" 
d="M441 -18q-200 0 -302.5 101.5t-102.5 310.5q0 100 29.5 174t81.5 123t123 73.5t154 24.5q76 0 138.5 -14.5t110.5 -46.5t81.5 -83.5t51.5 -125.5l-270 -25q-14 50 -39 81.5t-74 31.5q-137 0 -137 -223q0 -113 34.5 -170t117.5 -57q38 0 77.5 14t59.5 40v89h-137l2 166
h376v-342q-27 -29 -65.5 -54.5t-86.5 -45t-104.5 -31t-118.5 -11.5z" />
    <glyph glyph-name="H" unicode="H" horiz-adv-x="883" 
d="M570 -9v327h-257v-327h-249v789h249v-274h257v274h249v-789h-249z" />
    <glyph glyph-name="I" unicode="I" horiz-adv-x="377" 
d="M64 -9v789h249v-789h-249z" />
    <glyph glyph-name="J" unicode="J" horiz-adv-x="752" 
d="M347 -18q-162 0 -250 75t-88 240l250 42q-1 -8 -1.5 -17t-0.5 -19v-26q10 -65 33.5 -88.5t66.5 -23.5q53 0 73 32.5t20 104.5v478h254v-468q0 -330 -357 -330z" />
    <glyph glyph-name="K" unicode="K" horiz-adv-x="885" 
d="M313 527l8 13l274 240h308l-305 -276l310 -513h-297l-207 353l-91 -73v-280h-249v789h249v-253z" />
    <glyph glyph-name="L" unicode="L" horiz-adv-x="739" 
d="M64 -9v789h249v-602h370l63 -187h-682z" />
    <glyph glyph-name="M" unicode="M" horiz-adv-x="1077" 
d="M303 382l1 -17v-374h-240v789h298l160 -373q0 -2 2.5 -12.5l6.5 -28.5t7 -33l6 25t5 24t3.5 18.5l1.5 7.5l160 372h299v-789h-239v374l1 20q-6 -17 -6 -21l-134 -373h-190l-137 374z" />
    <glyph glyph-name="N" unicode="N" horiz-adv-x="891" 
d="M305 407v-38v-378h-241v789h256l244 -361q0 -2 7.5 -14.5l15.5 -26.5l-2 52v350h243v-789h-255l-245 378q0 2 -6.5 12l-13.5 21z" />
    <glyph glyph-name="O" unicode="O" horiz-adv-x="882" 
d="M441 -18q-92 0 -167 23.5t-128 73t-81.5 127t-28.5 186.5q0 105 28.5 180.5t81.5 123.5t128 70.5t167 22.5q91 0 166 -21.5t128.5 -69t82.5 -123t29 -183.5q0 -105 -29 -182t-82 -127.5t-128 -75.5t-167 -25zM441 602q-34 0 -62 -10t-48 -34.5t-31 -65.5t-11 -103
q0 -64 10 -107t29.5 -69t48 -37t64.5 -11t64 11.5t47.5 37.5t30 69t10.5 106q0 62 -11 103t-31.5 65.5t-48.5 34.5t-61 10z" />
    <glyph glyph-name="P" unicode="P" horiz-adv-x="837" 
d="M566 286h-253v-295h-249v789h478q67 0 119 -12.5t88 -41.5t54.5 -76t18.5 -115q0 -132 -67 -190.5t-189 -58.5zM487 599h-175v-136h173q45 0 61.5 14.5t16.5 50.5q0 38 -15.5 54.5t-60.5 16.5z" />
    <glyph glyph-name="Q" unicode="Q" horiz-adv-x="856" 
d="M708 -145q-5 1 -30.5 18.5l-57 40.5l-60.5 46t-41 36q-42 -11 -90 -11q-188 1 -291.5 101.5t-103.5 305.5q0 113 31.5 189t85.5 122.5t125.5 66t151.5 19.5q93 0 166 -22.5t123.5 -71.5t77 -126t26.5 -186q0 -103 -27 -179t-81 -119q9 -10 30.5 -26t46 -32.5t47 -30
t34.5 -18.5zM428 603q-37 0 -63.5 -11.5t-43.5 -36.5t-25 -66t-8 -99q0 -120 32 -173t107 -53q26 0 52 6.5t46.5 29.5t33 68t12.5 123q0 115 -34 163.5t-109 48.5z" />
    <glyph glyph-name="R" unicode="R" horiz-adv-x="863" 
d="M572 -9l-146 326h-114v-326h-248v789h509q60 0 108 -16t82 -47t52 -75t18 -99q0 -81 -36 -133t-115 -73l158 -346h-268zM488 599h-177v-107h180q47 0 62.5 14.5t15.5 38.5q0 28 -15.5 41t-65.5 13z" />
    <glyph glyph-name="S" unicode="S" horiz-adv-x="829" 
d="M426 -15q-192 0 -289.5 54.5t-117.5 163.5q-2 10 -2 17v25l299 30q2 -12 2.5 -25.5t4.5 -25.5q10 -28 38.5 -46.5t85.5 -18.5t83 18.5t26 46.5q0 18 -4 31t-18 23t-40 18.5t-69 16.5q-37 7 -80.5 13t-86.5 15t-83 23.5t-71 39t-49.5 60.5t-18.5 89q0 61 25.5 105.5
t73 73.5t116.5 43t156 14q58 0 116.5 -9t108.5 -33t88 -65.5t55 -105.5q1 -3 1.5 -8t2.5 -17l-274 -30q0 3 -1 10.5t-3 16t-4 16t-4 9.5q-11 17 -33.5 28.5t-62.5 11.5q-54 0 -74 -14t-20 -34q0 -10 3.5 -19.5t17.5 -17.5t41 -15.5t74 -13.5q21 -3 41.5 -7t38.5 -6
q151 -22 228.5 -76t77.5 -157q0 -66 -22 -116.5t-70 -84t-124 -50.5t-183 -17z" />
    <glyph glyph-name="T" unicode="T" horiz-adv-x="733" 
d="M489 596v-606h-249v606h-234v184h721v-184h-238z" />
    <glyph glyph-name="U" unicode="U" horiz-adv-x="844" 
d="M420 -16q-104 0 -174 21.5t-113.5 63.5t-62 103.5t-18.5 141.5v466h245v-461q0 -78 27.5 -113t94.5 -35q64 0 90 34t26 119v456h245v-478q0 -72 -18.5 -131t-61 -100.5t-111.5 -64t-169 -22.5z" />
    <glyph glyph-name="V" unicode="V" horiz-adv-x="793" 
d="M545 -9h-282l-274 789h260l142 -409q0 -1 1.5 -8.5t4.5 -18t6 -23.5l6 -25l4 18q5 21 9.5 38t4.5 19l129 409h250z" />
    <glyph glyph-name="W" unicode="W" horiz-adv-x="1148" 
d="M580 391l2 -8q4 -11 7.5 -22t5.5 -22l105 -349h237l221 790h-246l-53 -208.5l-53 -206.5l-2 -7l-3 8q-2 8 -6 21t-6 21l-105 372h-217l-97 -366q0 -2 -1 -6t-3 -10l-8 -30l-3 -10l-3 12l-54.5 206l-55.5 204h-253l234 -790l235 -1l107 350q2 13 6.5 26.5z" />
    <glyph glyph-name="X" unicode="X" horiz-adv-x="804" 
d="M522 -9l-107 178q-1 4 -5 9l-9 18l-5 11l-5 -10l-10 -17q-2 -3 -2.5 -5t-1.5 -4l-118 -180h-272l276 399l-258 390h291l99 -157q0 -2 2.5 -7.5l5.5 -12t6.5 -12l5.5 -8.5q1 3 4 9t6.5 12t6 11.5t2.5 7.5l108 157h266l-264 -377l271 -412h-293z" />
    <glyph glyph-name="Y" unicode="Y" horiz-adv-x="809" 
d="M533 247v-256h-256v259l-291 530h285l119 -245q2 -6 7 -16t8 -17q1 -2 2.5 -5.5l3.5 -8.5l6 14l9 22q4 5 4 9l117 247h278z" />
    <glyph glyph-name="Z" unicode="Z" horiz-adv-x="777" 
d="M371 178h380v-188h-732v151l404 455h-388v184h722v-163z" />
    <glyph glyph-name="bracketleft" unicode="[" horiz-adv-x="424" 
d="M243 598v-607h148v-180h-360v969h361v-182h-149z" />
    <glyph glyph-name="backslash" unicode="\" horiz-adv-x="433" 
d="M312 -190h183l-325 969h-182z" />
    <glyph glyph-name="bracketright" unicode="]" horiz-adv-x="424" 
d="M28 -189v180h149v607h-149v182h360v-969h-360z" />
    <glyph glyph-name="asciicircum" unicode="^" horiz-adv-x="531" 
d="M265 603l-36 -104h-209l129 281h232l129 -281h-210z" />
    <glyph glyph-name="underscore" unicode="_" horiz-adv-x="451" 
d="M-9 -184v160h470v-160h-470z" />
    <glyph glyph-name="grave" unicode="`" horiz-adv-x="404" 
d="M174 571h158l-81 190h-187z" />
    <glyph glyph-name="a" unicode="a" 
d="M547 -14q-48 0 -76.5 16.5t-43.5 41.5q-37 -29 -87 -44t-107 -15q-47 0 -86 9t-67.5 30t-44.5 54.5t-16 82.5q0 46 19 78t52 53t79 33t100 19q40 5 66.5 7.5t42 5t21.5 6t6 10.5t-2.5 13t-10.5 11t-23.5 8t-42.5 3q-48 0 -81 -16t-56 -48l-130 84q42 60 109 92.5
t173 32.5q65 0 116 -13t85.5 -40.5t52.5 -71.5t18 -106v-139q0 -32 7 -40t17 -10q6 -2 16 -2q5 0 11 0.5t13 1.5v-133q-26 -6 -61.5 -10t-68.5 -4zM313 223q-42 -6 -58.5 -20t-16.5 -34q0 -23 14 -32.5t43 -9.5q45 0 68.5 12.5t34.5 32.5q2 3 3.5 11t3 17.5t2 18.5t0.5 14
q-24 -5 -50 -6t-44 -4z" />
    <glyph glyph-name="b" unicode="b" horiz-adv-x="689" 
d="M409 -14q-38 0 -78 9t-70 30v-34h-203v789h211v-270q26 20 62 31.5t82 11.5q56 0 101.5 -16t78 -50.5t50 -89t17.5 -130.5q0 -77 -20 -130.5t-54 -87t-80 -48.5t-97 -15zM358 411q-33 0 -51.5 -13t-27.5 -33.5t-10.5 -45.5t-1.5 -49t1.5 -50t9.5 -47t26.5 -34.5
t52.5 -13.5q43 0 67 33t24 111q0 43 -7 71t-19 43.5t-28.5 21.5t-35.5 6z" />
    <glyph glyph-name="c" unicode="c" horiz-adv-x="660" 
d="M340 -14q-159 0 -235 67.5t-76 215.5q0 150 80 217t227 67q56 0 106.5 -11t91 -36.5t68.5 -67.5t39 -103l-214 -18q-11 57 -32.5 75.5t-56.5 18.5q-21 0 -38.5 -6.5t-30 -23t-19.5 -44t-7 -69.5q0 -41 7 -67.5t20 -43t31 -23t39 -6.5q35 0 58 24t31 87l214 -18
q-13 -126 -90.5 -180.5t-212.5 -54.5z" />
    <glyph glyph-name="d" unicode="d" horiz-adv-x="692" 
d="M425 -9v36q-25 -17 -63.5 -28.5t-84.5 -11.5q-57 0 -102.5 16.5t-78 51t-49.5 88t-17 127.5q0 79 20.5 133t54 87t78 47t92.5 14q42 0 79.5 -10.5t67.5 -30.5v270h211v-789h-208zM421 330q-7 82 -86 82q-45 0 -68.5 -32t-23.5 -112q0 -43 6.5 -70.5t18.5 -44t28.5 -23
t37.5 -6.5q33 0 51.5 13.5t26.5 34.5t9.5 46.5t1.5 49.5q0 20 -0.5 35t-1.5 27z" />
    <glyph glyph-name="e" unicode="e" horiz-adv-x="655" 
d="M239 222q8 -58 31 -79.5t65 -21.5q36 0 54 17.5t25 57.5l214 -21q-11 -43 -33 -78t-57.5 -59.5t-85.5 -38t-117 -13.5q-156 0 -231 68.5t-75 215.5q0 77 23 131t64 87.5t97.5 49t122.5 15.5q142 0 220.5 -79.5t76.5 -251.5h-394zM338 419q-40 0 -62 -18.5t-31 -53.5h177
q-9 40 -29.5 56t-54.5 16z" />
    <glyph glyph-name="f" unicode="f" horiz-adv-x="405" 
d="M302 388v-397h-213v397h-75v158h77v64q0 76 49 123t143 47h121v-161h-56q-46 0 -46 -36v-37h103v-158h-103z" />
    <glyph glyph-name="g" unicode="g" horiz-adv-x="689" 
d="M326 -192q-108 0 -183 26.5t-107 88.5l89 98q22 -35 67 -55.5t117 -20.5q54 0 81 20t33 58q1 2 2 5.5t2 8.5q-22 -20 -58.5 -32t-88.5 -12q-56 0 -102.5 15.5t-79.5 49t-51.5 85.5t-18.5 126q0 84 22.5 138.5t58.5 86.5t82.5 44.5t94.5 12.5t80.5 -11.5t55.5 -29.5v38
h209v-465q0 -56 -11 -105.5t-44 -87.5t-93 -60t-157 -22zM419 305q-5 62 -28.5 85t-57.5 23q-45 0 -68.5 -32t-23.5 -112q0 -42 7.5 -69t20 -42.5t29.5 -21.5t35 -6q31 0 48.5 13t26 33t10.5 45t2 48v19v9t-1 8z" />
    <glyph glyph-name="h" unicode="h" horiz-adv-x="704" 
d="M436 -9v322q0 83 -74 83q-39 0 -65 -22.5t-27 -62.5v-42v-65v-73v-70v-51v-19h-212v789h212v-281q60 54 166 54q111 0 161 -54t50 -163v-345h-211z" />
    <glyph glyph-name="i" unicode="i" horiz-adv-x="330" 
d="M57 587v179h218v-179h-218zM59 -9v557h211v-557h-211z" />
    <glyph glyph-name="j" unicode="j" horiz-adv-x="331" 
d="M59 587v179h219v-179h-219zM107 -189q-30 0 -61.5 1t-48.5 8v145h39q14 0 20 7.5t6 30.5v545h212v-591q0 -75 -43 -110.5t-124 -35.5z" />
    <glyph glyph-name="k" unicode="k" horiz-adv-x="673" 
d="M462 -9l-132 244l-60 -48v-196h-212v789h212v-367l150 135h273l-197 -176l204 -381h-238z" />
    <glyph glyph-name="l" unicode="l" horiz-adv-x="327" 
d="M58 -9v789h212v-789h-212z" />
    <glyph glyph-name="m" unicode="m" horiz-adv-x="1065" 
d="M796 -9v320q0 42 -15 63.5t-57 21.5q-22 0 -39 -7.5t-28.5 -19t-17.5 -26t-6 -27.5v-325h-200v320q0 40 -16.5 62.5t-56.5 22.5q-23 0 -39.5 -7.5t-28 -18.5t-17 -25t-5.5 -27v-327h-212v557h212v-50q31 25 71.5 39.5t97.5 14.5q51 0 92 -17t67 -52q34 33 80.5 51
t120.5 18q48 0 86.5 -12t65.5 -39t41.5 -69.5t14.5 -102.5v-338h-211z" />
    <glyph glyph-name="n" unicode="n" horiz-adv-x="704" 
d="M436 -9v322q0 45 -19 64t-54 19q-38 0 -64.5 -21.5t-28.5 -63.5q-1 -7 -1 -18v-24v-65v-73q0 -38 0.5 -69.5t0.5 -51.5v-19h-212v557h212v-50q32 26 72.5 40.5t94.5 14.5q111 0 160.5 -53t49.5 -164v-345h-211z" />
    <glyph glyph-name="o" unicode="o" horiz-adv-x="677" 
d="M338 -14q-158 0 -233.5 69.5t-75.5 213.5t75.5 214t234.5 70q309 0 309 -284q0 -144 -78.5 -213.5t-231.5 -69.5zM339 411q-21 0 -39 -6.5t-31 -23t-20 -43.5t-7 -69t7.5 -69.5t20 -43t30 -22t38.5 -6.5t39 6.5t31 22.5t20.5 43.5t7.5 68.5q0 42 -7.5 69.5t-20 43.5
t-30.5 22.5t-39 6.5z" />
    <glyph glyph-name="p" unicode="p" 
d="M416 -13q-40 0 -78.5 8t-67.5 28v-212h-212v737h210v-39q26 20 62 31.5t84 11.5q56 0 101.5 -16t77.5 -50t49.5 -88.5t17.5 -130.5q0 -77 -19.5 -130.5t-52.5 -86.5t-77.5 -48t-94.5 -15zM359 411q-34 0 -52.5 -13t-27.5 -33t-10.5 -45.5t-1.5 -49.5t1 -49t9.5 -45.5
t26.5 -33.5t52 -13q46 0 69 31.5t23 108.5q0 43 -6.5 71t-18 43.5t-28 21.5t-36.5 6z" />
    <glyph glyph-name="q" unicode="q" horiz-adv-x="691" 
d="M422 -189v217q-54 -42 -146 -42q-56 0 -101.5 15.5t-77.5 50t-49.5 88t-17.5 130.5t19.5 131t52.5 87.5t77.5 48.5t94.5 15q51 0 85.5 -10.5t63.5 -32.5v39h209v-737h-210zM420 325q-5 46 -27.5 66t-57.5 20q-46 0 -69 -33t-23 -112q0 -43 7 -71t19 -44t29 -22.5t37 -6.5
q32 0 50 13.5t26.5 34.5t10 46.5t1.5 48.5q0 36 -3 60z" />
    <glyph glyph-name="r" unicode="r" horiz-adv-x="493" 
d="M402 381q-32 0 -54.5 -7t-37.5 -19t-24.5 -28.5t-15.5 -35.5v-300h-212v557h212v-57q33 32 77.5 46t105.5 14h26v-184q-16 5 -40 9.5t-37 4.5z" />
    <glyph glyph-name="s" unicode="s" horiz-adv-x="600" 
d="M7 129q-4 7 -5 16t-2 17l180 52l4 -26q17 -36 48 -49.5t66 -13.5q43 0 56.5 9t13.5 26q0 10 -2 17t-9.5 12.5t-22 10t-39.5 9.5q-39 7 -87 14t-90.5 24t-71.5 48t-29 86q0 37 20 68.5t57 54.5t89.5 36t117.5 13q54 0 96.5 -8.5t75 -24.5t56.5 -38t41 -50q2 -2 2.5 -3.5
t1.5 -2.5l2 -3q0 -1 1 -2.5t8 -10.5l-185 -60l-3.5 9t-2.5 9q-16 26 -37.5 36t-57.5 10q-40 0 -50.5 -9.5t-10.5 -21.5q0 -6 2.5 -11t13 -9.5t31.5 -9t57 -9.5q23 -3 49 -8l46 -9q73 -15 115.5 -52t42.5 -111q0 -50 -24 -84.5t-64 -55.5t-92 -30t-108 -9q-126 0 -200.5 35.5
t-100.5 110.5z" />
    <glyph glyph-name="t" unicode="t" horiz-adv-x="420" 
d="M296 388v-197q0 -26 7 -35t22 -9h59v-155q-12 -2 -29 -3.5t-35 -2l-35 -1t-27 -0.5q-93 0 -134 45.5t-41 143.5v214h-81v158h81v115l213 63v-178h93v-158h-93z" />
    <glyph glyph-name="u" unicode="u" horiz-adv-x="701" 
d="M429 -9v45q-29 -23 -71 -36.5t-96 -13.5q-111 0 -161 53t-50 162v347h212v-326q0 -45 18 -64t55 -19q39 0 65.5 23t27.5 62v42v66v74v69v52v21h212v-557h-212z" />
    <glyph glyph-name="v" unicode="v" horiz-adv-x="633" 
d="M431 -9h-226l-219 557h226l97 -266q0 -6 4 -15l9 -33l3 -13q11 43 23 81.5l24.5 77.5l26.5 80l29 88h219z" />
    <glyph glyph-name="w" unicode="w" horiz-adv-x="980" 
d="M490 280l-1.5 -4t-3.5 -8.5t-3.5 -8.5t-1.5 -5l-84 -263h-215l-194 557h224l73 -252q0 -2 4.5 -17.5l9.5 -33.5l3 -14l4 14q5 17 9 32.5t4 17.5l79 253h204l78 -253q0 -2 4 -17l9 -33l3 -12l4 13q5 17 9 32.5t4 17.5l75 252h206l-197 -557h-213l-84 263q0 2 -4.5 13.5
t-4.5 12.5z" />
    <glyph glyph-name="x" unicode="x" horiz-adv-x="670" 
d="M427 -9l-77 108q-1 2 -2 3.5t-2 3.5l-7 14l-2 5l-3 -5q-2 -4 -6 -11t-5 -11l-74 -107h-265l214 290l-200 267h249l60 -91q1 -3 4 -6l8 -14q3 -4 5 -8q2 4 9.5 14.5t8.5 12.5l61 92h249l-191 -268l225 -289h-259z" />
    <glyph glyph-name="y" unicode="y" horiz-adv-x="632" 
d="M326 225l5.5 23t2.5 12l95 288h216l-8 -21l-22 -56l-31.5 -80.5l-36.5 -95l-38 -98.5l-34.5 -91.5l-26.5 -74.5t-15 -47q-19 -45 -42 -77.5t-53.5 -54.5t-69 -32.5t-88.5 -10.5q-31 0 -54 2t-41 6t-33 10.5t-28 14.5l40 155q24 -20 51 -26.5t48 -6.5q14 0 27.5 8t21.5 27
l-223 549h225l105 -289q0 -2 0.5 -5.5t1.5 -8.5z" />
    <glyph glyph-name="z" unicode="z" horiz-adv-x="614" 
d="M21 -9v127l254 271h-246v159h547v-132l-266 -269h279v-156h-568z" />
    <glyph glyph-name="braceleft" unicode="{" horiz-adv-x="449" 
d="M124 -10v161q0 18 -4.5 31.5t-16 22.5t-32.5 13.5t-54 4.5v175q36 0 57.5 3.5t32 10.5t13.5 18t3 26v112q0 67 17 108.5t52.5 64.5t90.5 31t131 8v-176q-45 0 -68.5 -15.5t-23.5 -65.5v-115q0 -30 -11.5 -56t-40.5 -40q29 -13 39.5 -36.5t10.5 -46.5v-135
q0 -38 5.5 -59.5t17 -32.5t29.5 -14t42 -3v-174q-78 0 -133.5 10t-90 31.5t-50.5 55.5t-16 82z" />
    <glyph glyph-name="bar" unicode="|" horiz-adv-x="335" 
d="M73 -189v973h189v-973h-189z" />
    <glyph glyph-name="braceright" unicode="}" horiz-adv-x="449" 
d="M321 151v-160q0 -48 -16 -82.5t-50.5 -56t-89.5 -31.5t-133 -10v174q24 0 42 3t29.5 14t17 32.5t5.5 59.5v134q0 23 10 47t40 37q-29 14 -40 40t-11 56v115q0 50 -23.5 65.5t-69.5 15.5v176q76 0 131 -8t90 -31t52 -64.5t17 -108.5v-112q0 -15 3 -26t14 -18t32 -10.5
t57 -3.5v-176q-33 0 -54 -4.5t-32.5 -13.5t-16 -22t-4.5 -31z" />
    <glyph glyph-name="asciitilde" unicode="~" horiz-adv-x="609" 
d="M420 305q-21 0 -35.5 1t-27.5 4t-26 8.5l-31 13.5q-28 13 -47 19t-41 6q-26 0 -42 -15.5t-18 -31.5l-121 55q2 22 14 45t33 42.5t50.5 32t66.5 12.5q33 0 57 -6t52 -20q24 -12 47 -20t39 -8q30 1 46 16t20 32l120 -55q-2 -30 -17.5 -54t-38 -41t-49.5 -26.5t-51 -9.5z
" />
    <glyph glyph-name="quotesinglbase" unicode="&#x201a;" horiz-adv-x="361" 
d="M85 -162l-30 98q51 9 72.5 22.5t25.5 32.5h-107v192h275v-158q0 -91 -62 -135.5t-174 -51.5z" />
    <glyph glyph-name="florin" unicode="&#x192;" horiz-adv-x="428" 
d="M324 388v-388q0 -38 -12 -72.5t-37 -60.5t-65 -41.5t-95 -15.5h-112v175h63q21 0 33.5 13t12.5 43v347h-108v158h109v64q0 76 49 123t143 47h121v-160h-56q-46 0 -46 -37v-37h102v-158h-102z" />
    <glyph glyph-name="quotedblbase" unicode="&#x201e;" horiz-adv-x="680" 
d="M406 -162l-30 98q51 9 72.5 22.5t25.5 32.5h-107v192h275v-158q0 -91 -62 -135.5t-174 -51.5zM85 -162l-30 98q51 9 72.5 22.5t25.5 32.5h-107v192h275v-158q0 -91 -59 -135.5t-177 -51.5z" />
    <glyph glyph-name="ellipsis" unicode="&#x2026;" horiz-adv-x="1096" 
d="M795 -9v214h236v-214h-236zM429 -9v214h237v-214h-237zM64 -9v214h237v-214h-237z" />
    <glyph glyph-name="dagger" unicode="&#x2020;" horiz-adv-x="470" 
d="M334 347v-337l-99 -235l-99 235v337h-139v162h139v271h198v-271h140v-162h-140z" />
    <glyph glyph-name="daggerdbl" unicode="&#x2021;" horiz-adv-x="470" 
d="M326 194v-195l-91 -224l-92 224v195h-140v151h147v56h-147v152h140v227h183v-227h140v-152h-146v-56h146v-151h-140z" />
    <glyph glyph-name="circumflex" unicode="&#x2c6;" horiz-adv-x="416" 
d="M251 567h155l-138 182h-120l-138 -182h155l43 57z" />
    <glyph glyph-name="Scaron" unicode="&#x160;" horiz-adv-x="829" 
d="M448 787h-121l-137 182h155l43 -59l43 59h155zM426 -15l-407 218l-2 17v25l299 30l7 -51l124 -65l109 65l-131 89l-389 240l371 236l368 -213l4 -25l-274 -30l-12 52l-96 40l-94 -48l136 -66l80 -13l306 -233l-399 -268v0z" />
    <glyph glyph-name="guilsinglleft" unicode="&#x2039;" horiz-adv-x="369" 
d="M213 336l138 117v202l-329 -260v-129l328 -257v214z" />
    <glyph glyph-name="OE" unicode="&#x152;" horiz-adv-x="1236" 
d="M565 -10v26q-20 -10 -60.5 -22t-94.5 -12q-83 0 -151.5 22t-118 70.5t-77 125t-27.5 185.5q0 105 28.5 181t80 125.5t122 73.5t154.5 24q40 0 77.5 -8t66.5 -24v23h655l-58 -183h-362v-109h340v-178h-340v-134h381l66 -185zM562 537q-17 39 -48 55t-73 16
q-34 0 -62 -11.5t-48.5 -38t-31.5 -69t-11 -105.5q0 -64 10.5 -107t30 -69.5t48 -38t64.5 -11.5q51 0 79 17.5t42 46.5q0 8 0.5 32.5t0.5 56.5v69v69q0 32 -0.5 56t-0.5 32z" />
    <glyph glyph-name="quoteleft" unicode="&#x2018;" horiz-adv-x="361" 
d="M46 452v159q0 91 61.5 136t173.5 51l31 -98q-51 -9 -72.5 -22.5t-25.5 -32.5h107v-193h-275z" />
    <glyph glyph-name="quoteright" unicode="&#x2019;" horiz-adv-x="361" 
d="M85 435l-30 98q51 9 72.5 22.5t25.5 31.5h-107v194h275v-158q0 -91 -62 -136.5t-174 -51.5z" />
    <glyph glyph-name="quotedblleft" unicode="&#x201c;" horiz-adv-x="680" 
d="M367 452v159q0 91 58.5 136t176.5 51l31 -98q-52 -9 -73 -22.5t-25 -32.5h106v-193h-274zM46 452v159q0 91 61.5 136t173.5 51l31 -98q-51 -9 -72.5 -22.5t-25.5 -32.5h107v-193h-275z" />
    <glyph glyph-name="quotedblright" unicode="&#x201d;" horiz-adv-x="680" 
d="M406 435l-30 98q51 9 72.5 22.5t25.5 31.5h-107v194h275v-158q0 -93 -62 -137.5t-174 -50.5zM85 435l-30 98q51 9 72.5 22.5t25.5 31.5h-107v194h275v-158q0 -91 -59 -136.5t-177 -51.5z" />
    <glyph glyph-name="bullet" unicode="&#x2022;" horiz-adv-x="490" 
d="M245 178q45 0 84.5 17t69 46t46.5 69t17 85t-17 84.5t-46.5 69t-69 46.5t-84.5 17t-84.5 -17.5t-69 -47t-46.5 -69t-17 -83.5q0 -45 17 -84.5t46.5 -69t69 -46.5t84.5 -17z" />
    <glyph glyph-name="endash" unicode="&#x2013;" horiz-adv-x="410" 
d="M-9 290v160h429v-160h-429z" />
    <glyph glyph-name="emdash" unicode="&#x2014;" horiz-adv-x="652" 
d="M50 290v160h552v-160h-552z" />
    <glyph glyph-name="tilde" unicode="&#x2dc;" horiz-adv-x="416" 
d="M285 566q-16 0 -27.5 2t-22 5.5t-21.5 9l-24 11.5l-16 10t-19 5q-7 0 -13 -7.5t-8 -32.5h-116q-5 79 25.5 122.5t87.5 43.5q16 0 28 -2t22.5 -6t21 -9t23.5 -12q8 -5 17 -10t19 -5q6 0 12 7.5t8 32.5h117q5 -79 -26 -122t-88 -43z" />
    <glyph glyph-name="trademark" unicode="&#x2122;" horiz-adv-x="823" 
d="M680 461v112l-57 -112h-92l-60 114v-114h-128v319h131l106 -189l99 189h131v-319h-130zM246 662v-201h-146v201h-100v118h341v-118h-95z" />
    <glyph glyph-name="scaron" unicode="&#x161;" horiz-adv-x="600" 
d="M267 554h-121l-137 182h155l43 -59l43 59h155zM7 129l-7 33l180 52l4 -26l114 -63l70 35l-73 49l-278 172l284 172l269 -121l4 -6l2 -3l9 -13l-185 -60l-6 18l-95 46l-61 -31l104 -39l95 -17l158 -163l-288 -179l-301 146z" />
    <glyph glyph-name="guilsinglright" unicode="&#x203a;" horiz-adv-x="369" 
d="M19 6l329 259v130l-329 258v-214l137 -115l-137 -116v-202z" />
    <glyph glyph-name="oe" unicode="&#x153;" horiz-adv-x="1049" 
d="M634 222q8 -58 31 -79.5t65 -21.5q36 0 53.5 17.5t25.5 57.5l214 -21q-11 -43 -33 -78t-57.5 -59.5t-86 -38t-117.5 -13.5q-69 0 -114.5 13.5t-80.5 40.5q-35 -26 -81 -40t-115 -14q-158 0 -233.5 69.5t-75.5 213.5q0 284 310 284q77 0 122 -15.5t77 -40.5q27 25 72 40.5
t120 15.5q70 0 126 -19.5t94.5 -60t58.5 -103t19 -148.5h-394zM732 419q-39 0 -61.5 -17.5t-31.5 -54.5h178q-8 40 -29.5 56t-55.5 16zM339 411q-21 0 -39 -6.5t-31 -23t-20.5 -43.5t-7.5 -69t7.5 -69.5t20.5 -43t30.5 -22t38.5 -6.5t39 6.5t31 22.5t20.5 43.5t7.5 68.5
q0 42 -7.5 69.5t-20 43.5t-30.5 22.5t-39 6.5z" />
    <glyph glyph-name="Ydieresis" unicode="&#x178;" horiz-adv-x="809" 
d="M533 247v-256h-256v259l-291 530h285l119 -245q2 -6 7 -16t8 -17q1 -2 2.5 -5.5l3.5 -8.5l6 14l9 22q4 5 4 9l117 247h278zM420 787v167h171v-167h-171zM195 787v167h171v-167h-171z" />
    <glyph glyph-name="exclamdown" unicode="&#xa1;" horiz-adv-x="350" 
d="M60 385v212h230v-212h-230zM57 -192l33 544h174l29 -544h-236z" />
    <glyph glyph-name="cent" unicode="&#xa2;" horiz-adv-x="664" 
d="M383 60v-74h-95v75q-125 11 -185.5 77t-60.5 196q0 132 63.5 197.5t182.5 76.5v68h95v-68q45 -4 85 -17.5t71.5 -39t53.5 -63t31 -89.5l-205 -19q-5 42 -16.5 59.5t-26.5 24.5v-260q18 8 29.5 31t16.5 71l205 -17q-11 -113 -73.5 -167t-170.5 -62zM293 463
q-20 -11 -33 -40t-13 -89q0 -58 13 -86.5t33 -39.5v255z" />
    <glyph glyph-name="sterling" unicode="&#xa3;" horiz-adv-x="762" 
d="M11 -9v159q65 9 106.5 20t65 24t32.5 28.5t9 34.5q0 11 -4 24.5t-12 25.5h-176v98h54q-32 28 -50 64.5t-18 96.5q0 63 29 106.5t78.5 71t115 39.5t139.5 12q71 0 132 -14.5t107 -46.5t75.5 -82.5t38.5 -122.5q2 -12 0.5 -25.5t-1.5 -25.5l-254 9q11 63 -15.5 96t-96.5 33
q-54 0 -80.5 -15.5t-26.5 -52.5q0 -21 12 -38.5t29 -33t36.5 -29t33.5 -25.5h256v-123h-194q0 -37 -25 -68q-20 -38 -64 -63q58 5 132 7t145 2h88l53 -186h-750z" />
    <glyph glyph-name="currency" unicode="&#xa4;" horiz-adv-x="871" 
d="M19 411v131h71q36 131 134 189t243 58q88 0 154 -14.5t112.5 -46t74.5 -82t40 -121.5l-267 -25q-7 34 -16.5 54.5t-23.5 31t-33.5 13.5t-45.5 3q-38 0 -65 -14t-44 -46h130v-131h-155v-26v-17h159v-131h-137q17 -42 45.5 -57t64.5 -15q27 0 47 1.5t35 11t25 31t16 62.5
l261 -26q-13 -73 -40 -123t-72 -81t-110.5 -45t-155.5 -14q-149 1 -245 63t-131 192h-67v131h49v25v18h-53z" />
    <glyph glyph-name="yen" unicode="&#xa5;" horiz-adv-x="795" 
d="M402 525q7 19 19 45.5l25.5 55l27 56.5l24.5 49.5l17.5 35l6.5 13.5h270l-287 -493v-9l-10 10h215v-114h-205v-10h205v-114h-199v-59h-229v59h-197v114h204v10h-204v114h204v2l-286 490h279q1 -1 9.5 -19l24 -48.5l31.5 -64.5l31 -67t24 -56z" />
    <glyph glyph-name="section" unicode="&#xa7;" horiz-adv-x="605" 
d="M18 104q-2 7 -3 17t-2 17l174 55q1 -7 1.5 -14.5t2.5 -14.5q16 -35 46.5 -50t62.5 -15q43 0 55 10.5t12 27.5q0 10 -2.5 18t-10.5 14.5t-22.5 12t-39.5 10.5l-39 8l-35 7q-36 6 -71.5 14.5t-63.5 24.5t-45 41.5t-17 66.5q0 25 8.5 44.5t22.5 33.5t33 24.5t39 17.5
q-36 23 -54.5 56t-18.5 84q0 40 19.5 72t53.5 54t81 33.5t102 11.5q99 0 157.5 -31.5t89.5 -90.5q3 -6 3 -12q1 -2 2 -6t6 -14l-171 -59q0 12 -0.5 16t-0.5 7l-1 4l-1 2q-14 27 -33 37t-51 10q-36 0 -45.5 -9t-9.5 -23q0 -8 2 -15.5t11.5 -14t30.5 -13.5t59 -14
q18 -3 31.5 -6t27.5 -5q34 -5 63.5 -14.5t51 -26.5t33.5 -42t12 -60q0 -85 -91 -120q59 -23 80.5 -61t21.5 -86q0 -53 -22.5 -88.5t-60.5 -57t-88 -30.5t-105 -9q-240 0 -291 152v-1zM296 417q-39 -2 -52 -13t-13 -25q0 -13 16.5 -23.5t59.5 -16.5q37 2 51 13.5t14 26.5
q0 13 -17 23t-59 15z" />
    <glyph glyph-name="dieresis" unicode="&#xa8;" horiz-adv-x="416" 
d="M234 574v167h171v-167h-171zM9 574v167h171v-167h-171z" />
    <glyph glyph-name="copyright" unicode="&#xa9;" horiz-adv-x="755" 
d="M377 -3q-81 0 -147.5 32t-114 86.5t-73.5 127t-26 153.5q0 83 26 156t73.5 127.5t114 86t147.5 31.5t148 -31.5t114.5 -86t74 -127.5t26.5 -156q0 -79 -26 -151t-73.5 -127t-114.5 -88t-149 -33zM377 700q-58 0 -106 -23t-82.5 -63.5t-54 -96t-19.5 -121.5
q0 -61 18.5 -116t53 -96t83 -65.5t107.5 -24.5t107.5 24.5t83 66.5t53.5 96.5t19 114.5q0 66 -19 122t-54 96.5t-83.5 63t-106.5 22.5zM376 155q-100 0 -156 60.5t-56 180.5q0 118 55 179.5t158 61.5q82 0 138 -43.5t72 -147.5l-155 -19q-8 47 -20.5 63t-31.5 16
q-11 0 -21 -4.5t-17.5 -17t-11.5 -34.5t-4 -56q0 -33 4.5 -54t12 -32.5t17 -16t20.5 -4.5q9 0 17.5 3t15 13t11.5 28t8 48l155 -19q-5 -54 -22.5 -92.5t-45 -63.5t-64 -37t-79.5 -12z" />
    <glyph glyph-name="guillemotleft" unicode="&#xab;" horiz-adv-x="660" 
d="M326 253l312 -243v213l-137 113l137 117v202l-312 -248v-154zM15 266l329 -256v213l-137 113l137 117v202l-329 -260v-129z" />
    <glyph glyph-name="registered" unicode="&#xae;" horiz-adv-x="755" 
d="M377 -3q-81 0 -147.5 32t-114 86.5t-73.5 127t-26 153.5q0 83 26 156t73.5 127.5t114 86t147.5 31.5t148 -31.5t114.5 -86t74 -127.5t26.5 -156q0 -79 -26 -151t-73.5 -127t-114.5 -88t-149 -33zM377 700q-58 0 -106 -23t-82.5 -63.5t-54 -96t-19.5 -121.5
q0 -61 18.5 -116t53 -96t83 -65.5t107.5 -24.5t107.5 24.5t83 66.5t53.5 96.5t19 114.5q0 66 -19 122t-54 96.5t-83.5 63t-106.5 22.5zM513 371l86 -179h-160l-80 167h-21v-167h-152v422h267q30 0 56 -8t45.5 -23.5t31 -39.5t11.5 -57q0 -48 -21 -76t-63 -39zM397 507h-59
v-46h60q23 0 30.5 6.5t7.5 17.5q0 10 -6.5 16t-32.5 6z" />
    <glyph glyph-name="macron" unicode="&#xaf;" horiz-adv-x="416" 
d="M29 579v134h355v-134h-355z" />
    <glyph glyph-name="degree" unicode="&#xb0;" horiz-adv-x="458" 
d="M229 394q-42 0 -79 16t-64.5 43.5t-44 65t-16.5 79.5t16.5 79t44 64.5t64.5 43.5t79 16t79 -16t64.5 -43.5t44 -64.5t16.5 -79t-16.5 -79.5t-44 -65t-64.5 -43.5t-79 -16zM229 667q-29 0 -49 -20t-20 -49t20 -49.5t49 -20.5q28 0 48.5 20.5t20.5 49.5t-20 49t-49 20z" />
    <glyph glyph-name="acute" unicode="&#xb4;" horiz-adv-x="416" 
d="M234 566l118 183h-188l-88 -183h158z" />
    <glyph glyph-name="paragraph" unicode="&#xb6;" horiz-adv-x="643" 
d="M584 597l1 -606h-139v606h-145q-13 0 -26 -4.5t-23.5 -13.5t-17 -22.5t-6.5 -31.5q0 -35 16 -50.5t41 -18.5v116h125v-581h-136v311q-129 3 -196.5 67t-67.5 173q0 51 19.5 94.5t54.5 75.5t83.5 50t106.5 18h351v-183h-41z" />
    <glyph glyph-name="periodcentered" unicode="&#xb7;" horiz-adv-x="397" 
d="M63 284v231h272v-231h-272z" />
    <glyph glyph-name="periodcentered" unicode="&#xe001;" horiz-adv-x="397" 
d="M63 284v231h272v-231h-272z" />
    <glyph glyph-name="periodcentered" unicode="&#xe000;" horiz-adv-x="397" 
d="M63 284v231h272v-231h-272z" />
    <glyph glyph-name="periodcentered" unicode="&#x2219;" horiz-adv-x="397" 
d="M63 284v231h272v-231h-272z" />
    <glyph glyph-name="cedilla" unicode="&#xb8;" horiz-adv-x="416" 
d="M194 -205q-45 0 -78.5 9.5t-55.5 20.5l44 95q41 -26 80 -26q12 0 18 1t6 8q0 10 -12 11.5t-39 1.5v130h87v-54q17 -2 34 -7.5t30.5 -16t21.5 -27t8 -38.5q0 -29 -11 -49t-30.5 -33.5t-45.5 -19.5t-57 -6z" />
    <glyph glyph-name="guillemotright" unicode="&#xbb;" horiz-adv-x="660" 
d="M316 12l328 260v129l-328 257v-213l137 -114l-137 -117v-202zM22 12l312 247v154l-312 245v-213l138 -114l-138 -117v-202z" />
    <glyph glyph-name="questiondown" unicode="&#xbf;" horiz-adv-x="761" 
d="M280 385v212h231v-212h-231zM737 23q-8 -59 -37 -103t-75.5 -72.5t-109 -42.5t-135.5 -14q-159 0 -243 54t-84 168q0 45 10 77t30.5 55t50.5 40.5t70 33.5q40 24 56.5 40.5t20.5 42.5q0 1 0.5 7t0.5 13v16v13h211v-64q-2 -29 -9 -54.5t-22 -47.5t-39.5 -41.5t-61.5 -37.5
q-23 -12 -39 -22.5t-25.5 -22t-13.5 -25.5t-4 -32q0 -25 19.5 -41.5t70.5 -16.5q49 0 78.5 20t36.5 68q0 5 0.5 20t0.5 32l244 -12q0 -15 -1 -30.5t-1 -20.5z" />
    <glyph glyph-name="Agrave" unicode="&#xc0;" horiz-adv-x="834" 
d="M593 -9l-50 143h-252l-48 -143h-254l293 789h272l292 -789h-253zM430 470q-1 8 -5 20t-7 20l-1 6l-2 -5q-2 -9 -6 -20.5t-5 -20.5l-52 -164h131zM324 792h158l-81 190h-187z" />
    <glyph glyph-name="Aacute" unicode="&#xc1;" horiz-adv-x="834" 
d="M593 -9l-50 143h-252l-48 -143h-254l293 789h272l292 -789h-253zM430 470q-1 8 -5 20t-7 20l-1 6l-2 -5q-2 -9 -6 -20.5t-5 -20.5l-52 -164h131zM462 784l118 183h-188l-88 -183h158z" />
    <glyph glyph-name="Acircumflex" unicode="&#xc2;" horiz-adv-x="834" 
d="M593 -9l-50 143h-252l-48 -143h-254l293 789h272l292 -789h-253zM430 470q-1 8 -5 20t-7 20l-1 6l-2 -5q-2 -9 -6 -20.5t-5 -20.5l-52 -164h131zM445 786h155l-138 182h-120l-138 -182h155l43 57z" />
    <glyph glyph-name="Atilde" unicode="&#xc3;" horiz-adv-x="834" 
d="M593 -9l-50 143h-252l-48 -143h-254l293 789h272l292 -789h-253zM430 470q-1 8 -5 20t-7 20l-1 6l-2 -5q-2 -9 -6 -20.5t-5 -20.5l-52 -164h131zM471 780q-16 0 -27.5 2t-22 5.5t-21.5 9l-24 11.5l-16 10t-19 5q-7 0 -13 -7.5t-8 -32.5h-116q-5 79 25.5 122.5t87.5 43.5
q16 0 28 -2t22.5 -6t21 -9t23.5 -12q8 -5 17 -10t19 -5q6 0 12 7.5t8 32.5h117q5 -79 -26 -122t-88 -43z" />
    <glyph glyph-name="Adieresis" unicode="&#xc4;" horiz-adv-x="834" 
d="M593 -9l-50 143h-252l-48 -143h-254l293 789h272l292 -789h-253zM430 470q-1 8 -5 20t-7 20l-1 6l-2 -5q-2 -9 -6 -20.5t-5 -20.5l-52 -164h131zM430 786v167h171v-167h-171zM205 786v167h171v-167h-171z" />
    <glyph glyph-name="Aring" unicode="&#xc5;" horiz-adv-x="834" 
d="M593 -9l-50 143h-252l-48 -143h-254l293 789h272l292 -789h-253zM430 470q-1 8 -5 20t-7 20l-1 6l-2 -5q-2 -9 -6 -20.5t-5 -20.5l-52 -164h131zM407 724q-27 0 -51 10t-41.5 28t-28 41.5t-10.5 50.5t10 51t28 42t42 28t51 10t51 -10t42 -28t28 -42t10 -51t-10.5 -50.5
t-28 -41.5t-41.5 -28t-51 -10zM407 888q-14 0 -23.5 -10t-9.5 -24t9.5 -23.5t23.5 -9.5t23 9.5t9 23.5t-9 24t-23 10z" />
    <glyph glyph-name="AE" unicode="&#xc6;" horiz-adv-x="1169" 
d="M520 -9v151h-216l-85 -151h-263l485 789h711l-57 -183h-351v-109h327v-178h-328v-134h371l65 -185h-659zM520 550l-16.5 -40t-14.5 -29q-8 -11 -19.5 -33l-24 -47l-23.5 -49l-17 -38h115v236z" />
    <glyph glyph-name="Ccedilla" unicode="&#xc7;" horiz-adv-x="835" 
d="M545 475q-14 69 -40 98t-79 29q-34 0 -59 -10.5t-41.5 -36t-25 -67t-8.5 -103.5q0 -64 9.5 -106t27 -67.5t42 -36t53.5 -10.5q27 0 47 5.5t35 20.5t25 41t16 67l261 -26q-13 -73 -40 -127.5t-72 -91t-110.5 -54.5t-155.5 -18q-94 0 -167.5 25t-123.5 76t-76.5 128
t-26.5 182q0 106 28 181.5t79.5 123t124.5 69.5t163 22q176 0 266.5 -73.5t114.5 -215.5zM399 -208q-45 0 -78.5 9.5t-55.5 20.5l44 95q41 -26 80 -26q12 0 18 1t6 8q0 10 -12 11.5t-39 1.5v130h87v-54q17 -2 34 -7.5t30.5 -16t21.5 -27t8 -38.5q0 -29 -11 -49t-30.5 -33.5
t-45.5 -19.5t-57 -6z" />
    <glyph glyph-name="Egrave" unicode="&#xc8;" horiz-adv-x="762" 
d="M64 -9v789h679l-55 -183h-382v-109h358v-178h-358v-134h400l65 -185h-707zM343 791h158l-81 190h-187z" />
    <glyph glyph-name="Eacute" unicode="&#xc9;" horiz-adv-x="762" 
d="M64 -9v789h679l-55 -183h-382v-109h358v-178h-358v-134h400l65 -185h-707zM450 788l118 183h-188l-88 -183h158z" />
    <glyph glyph-name="Ecircumflex" unicode="&#xca;" horiz-adv-x="762" 
d="M64 -9v789h679l-55 -183h-382v-109h358v-178h-358v-134h400l65 -185h-707zM435 785h155l-138 182h-120l-138 -182h155l43 57z" />
    <glyph glyph-name="Edieresis" unicode="&#xcb;" horiz-adv-x="762" 
d="M64 -9v789h679l-55 -183h-382v-109h358v-178h-358v-134h400l65 -185h-707zM417 784v167h171v-167h-171zM192 784v167h171v-167h-171z" />
    <glyph glyph-name="Igrave" unicode="&#xcc;" horiz-adv-x="377" 
d="M64 -9v789h249v-789h-249zM160 791h158l-81 190h-187z" />
    <glyph glyph-name="Iacute" unicode="&#xcd;" horiz-adv-x="377" 
d="M64 -9v789h249v-789h-249zM243 786l118 183h-188l-88 -183h158z" />
    <glyph glyph-name="Icircumflex" unicode="&#xce;" horiz-adv-x="377" 
d="M64 -9v789h249v-789h-249zM285 785h155l-138 182h-120l-138 -182h155l43 57z" />
    <glyph glyph-name="Idieresis" unicode="&#xcf;" horiz-adv-x="377" 
d="M64 -9v789h249v-789h-249zM279 786v167h171v-167h-171zM54 786v167h171v-167h-171z" />
    <glyph glyph-name="Ntilde" unicode="&#xd1;" horiz-adv-x="891" 
d="M305 407v-38v-378h-241v789h256l244 -361q0 -2 7.5 -14.5l15.5 -26.5l-2 52v350h243v-789h-255l-245 378q0 2 -6.5 12l-13.5 21zM534 778q-16 0 -27.5 2t-22 5.5t-21.5 9l-24 11.5l-16 10t-19 5q-7 0 -13 -7.5t-8 -32.5h-116q-5 79 25.5 122.5t87.5 43.5q16 0 28 -2
t22.5 -6t21 -9t23.5 -12q8 -5 17 -10t19 -5q6 0 12 7.5t8 32.5h117q5 -79 -26 -122t-88 -43z" />
    <glyph glyph-name="Ograve" unicode="&#xd2;" horiz-adv-x="882" 
d="M441 -18q-92 0 -167 23.5t-128 73t-81.5 127t-28.5 186.5q0 105 28.5 180.5t81.5 123.5t128 70.5t167 22.5q91 0 166 -21.5t128.5 -69t82.5 -123t29 -183.5q0 -105 -29 -182t-82 -127.5t-128 -75.5t-167 -25zM441 602q-34 0 -62 -10t-48 -34.5t-31 -65.5t-11 -103
q0 -64 10 -107t29.5 -69t48 -37t64.5 -11t64 11.5t47.5 37.5t30 69t10.5 106q0 62 -11 103t-31.5 65.5t-48.5 34.5t-61 10zM352 791h158l-81 190h-187z" />
    <glyph glyph-name="Oacute" unicode="&#xd3;" horiz-adv-x="882" 
d="M441 -18q-92 0 -167 23.5t-128 73t-81.5 127t-28.5 186.5q0 105 28.5 180.5t81.5 123.5t128 70.5t167 22.5q91 0 166 -21.5t128.5 -69t82.5 -123t29 -183.5q0 -105 -29 -182t-82 -127.5t-128 -75.5t-167 -25zM441 602q-34 0 -62 -10t-48 -34.5t-31 -65.5t-11 -103
q0 -64 10 -107t29.5 -69t48 -37t64.5 -11t64 11.5t47.5 37.5t30 69t10.5 106q0 62 -11 103t-31.5 65.5t-48.5 34.5t-61 10zM502 786l118 183h-188l-88 -183h158z" />
    <glyph glyph-name="Ocircumflex" unicode="&#xd4;" horiz-adv-x="882" 
d="M441 -18q-92 0 -167 23.5t-128 73t-81.5 127t-28.5 186.5q0 105 28.5 180.5t81.5 123.5t128 70.5t167 22.5q91 0 166 -21.5t128.5 -69t82.5 -123t29 -183.5q0 -105 -29 -182t-82 -127.5t-128 -75.5t-167 -25zM441 602q-34 0 -62 -10t-48 -34.5t-31 -65.5t-11 -103
q0 -64 10 -107t29.5 -69t48 -37t64.5 -11t64 11.5t47.5 37.5t30 69t10.5 106q0 62 -11 103t-31.5 65.5t-48.5 34.5t-61 10zM473 786h155l-138 182h-120l-138 -182h155l43 57z" />
    <glyph glyph-name="Otilde" unicode="&#xd5;" horiz-adv-x="882" 
d="M441 -18q-92 0 -167 23.5t-128 73t-81.5 127t-28.5 186.5q0 105 28.5 180.5t81.5 123.5t128 70.5t167 22.5q91 0 166 -21.5t128.5 -69t82.5 -123t29 -183.5q0 -105 -29 -182t-82 -127.5t-128 -75.5t-167 -25zM441 602q-34 0 -62 -10t-48 -34.5t-31 -65.5t-11 -103
q0 -64 10 -107t29.5 -69t48 -37t64.5 -11t64 11.5t47.5 37.5t30 69t10.5 106q0 62 -11 103t-31.5 65.5t-48.5 34.5t-61 10zM514 778q-16 0 -27.5 2t-22 5.5t-21.5 9l-24 11.5l-16 10t-19 5q-7 0 -13 -7.5t-8 -32.5h-116q-5 79 25.5 122.5t87.5 43.5q16 0 28 -2t22.5 -6
t21 -9t23.5 -12q8 -5 17 -10t19 -5q6 0 12 7.5t8 32.5h117q5 -79 -26 -122t-88 -43z" />
    <glyph glyph-name="Odieresis" unicode="&#xd6;" horiz-adv-x="882" 
d="M441 -18q-92 0 -167 23.5t-128 73t-81.5 127t-28.5 186.5q0 105 28.5 180.5t81.5 123.5t128 70.5t167 22.5q91 0 166 -21.5t128.5 -69t82.5 -123t29 -183.5q0 -105 -29 -182t-82 -127.5t-128 -75.5t-167 -25zM441 602q-34 0 -62 -10t-48 -34.5t-31 -65.5t-11 -103
q0 -64 10 -107t29.5 -69t48 -37t64.5 -11t64 11.5t47.5 37.5t30 69t10.5 106q0 62 -11 103t-31.5 65.5t-48.5 34.5t-61 10zM459 784v167h171v-167h-171zM234 784v167h171v-167h-171z" />
    <glyph glyph-name="Oslash" unicode="&#xd8;" horiz-adv-x="882" 
d="M441 -18q-60 0 -110 10q-4 -9 -11 -22.5t-11.5 -23t-5.5 -10.5h-142l48 96q-84 45 -128.5 133.5t-44.5 226.5q0 105 28.5 180.5t81.5 123.5t128 70.5t167 22.5q60 0 104 -10q4 8 8 19l4 11h143l-32 -67q85 -45 132 -130t47 -220q0 -104 -29 -181t-82 -128t-128 -76
t-167 -25zM564 511l-159 -348q8 -4 17 -6.5t19 -2.5q39 0 69 11.5t50 39t30 72.5t10 112q0 36 -9.5 67.5t-26.5 54.5zM441 612q-37 0 -66.5 -10.5t-50 -36t-31.5 -68.5t-11 -109q0 -38 7.5 -72t22.5 -59l155 342q-5 8 -11.5 10.5t-14.5 2.5z" />
    <glyph glyph-name="Ugrave" unicode="&#xd9;" horiz-adv-x="844" 
d="M420 -16q-104 0 -174 21.5t-113.5 63.5t-62 103.5t-18.5 141.5v466h245v-461q0 -78 27.5 -113t94.5 -35q64 0 90 34t26 119v456h245v-478q0 -72 -18.5 -131t-61 -100.5t-111.5 -64t-169 -22.5zM344 791h158l-81 190h-187z" />
    <glyph glyph-name="Uacute" unicode="&#xda;" horiz-adv-x="844" 
d="M420 -16q-104 0 -174 21.5t-113.5 63.5t-62 103.5t-18.5 141.5v466h245v-461q0 -78 27.5 -113t94.5 -35q64 0 90 34t26 119v456h245v-478q0 -72 -18.5 -131t-61 -100.5t-111.5 -64t-169 -22.5zM461 786l118 183h-188l-88 -183h158z" />
    <glyph glyph-name="Ucircumflex" unicode="&#xdb;" horiz-adv-x="844" 
d="M420 -16q-104 0 -174 21.5t-113.5 63.5t-62 103.5t-18.5 141.5v466h245v-461q0 -78 27.5 -113t94.5 -35q64 0 90 34t26 119v456h245v-478q0 -72 -18.5 -131t-61 -100.5t-111.5 -64t-169 -22.5zM451 786h155l-138 182h-120l-138 -182h155l43 57z" />
    <glyph glyph-name="Udieresis" unicode="&#xdc;" horiz-adv-x="844" 
d="M420 -16q-104 0 -174 21.5t-113.5 63.5t-62 103.5t-18.5 141.5v466h245v-461q0 -78 27.5 -113t94.5 -35q64 0 90 34t26 119v456h245v-478q0 -72 -18.5 -131t-61 -100.5t-111.5 -64t-169 -22.5zM431 784v167h171v-167h-171zM206 784v167h171v-167h-171z" />
    <glyph glyph-name="Yacute" unicode="&#xdd;" horiz-adv-x="809" 
d="M533 247v-256h-256v259l-291 530h285l119 -245q2 -6 7 -16t8 -17q1 -2 2.5 -5.5l3.5 -8.5l6 14l9 22q4 5 4 9l117 247h278zM458 785l118 183h-188l-88 -183h158z" />
    <glyph glyph-name="germandbls" unicode="&#xdf;" horiz-adv-x="914" 
d="M309 125q-3 6 -4 16t-2 17l167 51q0 -1 1.5 -6t2.5 -11l1 -6q16 -35 44 -48t63 -13q43 0 56.5 9t13.5 26q0 9 -2.5 16t-10.5 12.5t-22 10t-38 9.5l-88 17.5t-89.5 29t-69.5 53t-28 89.5q0 39 13.5 62t33 36.5t43 20.5t43 15t33 20t13.5 35q0 8 -3.5 16t-13.5 14
t-26.5 9.5t-42.5 3.5q-30 0 -49.5 -6.5t-31 -18.5t-16 -28t-4.5 -35v-550h-207v555h2v36q0 100 78 149t230 49q135 0 204.5 -48.5t69.5 -136.5q0 -27 -7 -55.5t-19 -53t-29 -41.5t-38 -21q-42 -8 -54 -15.5t-12 -21.5q0 -20 20.5 -26t65.5 -13q42 -8 91 -15t90.5 -24.5
t69.5 -51t28 -93.5q0 -50 -22 -84.5t-60 -55.5t-90 -30t-113 -9q-125 0 -192.5 35t-93.5 108z" />
    <glyph glyph-name="agrave" unicode="&#xe0;" 
d="M547 -14q-48 0 -76.5 16.5t-43.5 41.5q-37 -29 -87 -44t-107 -15q-47 0 -86 9t-67.5 30t-44.5 54.5t-16 82.5q0 46 19 78t52 53t79 33t100 19q40 5 66.5 7.5t42 5t21.5 6t6 10.5t-2.5 13t-10.5 11t-23.5 8t-42.5 3q-48 0 -81 -16t-56 -48l-130 84q42 60 109 92.5
t173 32.5q65 0 116 -13t85.5 -40.5t52.5 -71.5t18 -106v-139q0 -32 7 -40t17 -10q6 -2 16 -2q5 0 11 0.5t13 1.5v-133q-26 -6 -61.5 -10t-68.5 -4zM313 223q-42 -6 -58.5 -20t-16.5 -34q0 -23 14 -32.5t43 -9.5q45 0 68.5 12.5t34.5 32.5q2 3 3.5 11t3 17.5t2 18.5t0.5 14
q-24 -5 -50 -6t-44 -4zM173 561h158l-81 190h-187z" />
    <glyph glyph-name="aacute" unicode="&#xe1;" 
d="M547 -14q-48 0 -76.5 16.5t-43.5 41.5q-37 -29 -87 -44t-107 -15q-47 0 -86 9t-67.5 30t-44.5 54.5t-16 82.5q0 46 19 78t52 53t79 33t100 19q40 5 66.5 7.5t42 5t21.5 6t6 10.5t-2.5 13t-10.5 11t-23.5 8t-42.5 3q-48 0 -81 -16t-56 -48l-130 84q42 60 109 92.5
t173 32.5q65 0 116 -13t85.5 -40.5t52.5 -71.5t18 -106v-139q0 -32 7 -40t17 -10q6 -2 16 -2q5 0 11 0.5t13 1.5v-133q-26 -6 -61.5 -10t-68.5 -4zM313 223q-42 -6 -58.5 -20t-16.5 -34q0 -23 14 -32.5t43 -9.5q45 0 68.5 12.5t34.5 32.5q2 3 3.5 11t3 17.5t2 18.5t0.5 14
q-24 -5 -50 -6t-44 -4zM390 556l118 183h-188l-88 -183h158z" />
    <glyph glyph-name="acircumflex" unicode="&#xe2;" 
d="M547 -14q-48 0 -76.5 16.5t-43.5 41.5q-37 -29 -87 -44t-107 -15q-47 0 -86 9t-67.5 30t-44.5 54.5t-16 82.5q0 46 19 78t52 53t79 33t100 19q40 5 66.5 7.5t42 5t21.5 6t6 10.5t-2.5 13t-10.5 11t-23.5 8t-42.5 3q-48 0 -81 -16t-56 -48l-130 84q42 60 109 92.5
t173 32.5q65 0 116 -13t85.5 -40.5t52.5 -71.5t18 -106v-139q0 -32 7 -40t17 -10q6 -2 16 -2q5 0 11 0.5t13 1.5v-133q-26 -6 -61.5 -10t-68.5 -4zM313 223q-42 -6 -58.5 -20t-16.5 -34q0 -23 14 -32.5t43 -9.5q45 0 68.5 12.5t34.5 32.5q2 3 3.5 11t3 17.5t2 18.5t0.5 14
q-24 -5 -50 -6t-44 -4zM250 556h155l-138 182h-120l-138 -182h155l43 57z" />
    <glyph glyph-name="atilde" unicode="&#xe3;" 
d="M547 -14q-48 0 -76.5 16.5t-43.5 41.5q-37 -29 -87 -44t-107 -15q-47 0 -86 9t-67.5 30t-44.5 54.5t-16 82.5q0 46 19 78t52 53t79 33t100 19q40 5 66.5 7.5t42 5t21.5 6t6 10.5t-2.5 13t-10.5 11t-23.5 8t-42.5 3q-48 0 -81 -16t-56 -48l-130 84q42 60 109 92.5
t173 32.5q65 0 116 -13t85.5 -40.5t52.5 -71.5t18 -106v-139q0 -32 7 -40t17 -10q6 -2 16 -2q5 0 11 0.5t13 1.5v-133q-26 -6 -61.5 -10t-68.5 -4zM313 223q-42 -6 -58.5 -20t-16.5 -34q0 -23 14 -32.5t43 -9.5q45 0 68.5 12.5t34.5 32.5q2 3 3.5 11t3 17.5t2 18.5t0.5 14
q-24 -5 -50 -6t-44 -4zM284 553q-16 0 -27.5 2t-22 5.5t-21.5 9l-24 11.5l-16 10t-19 5q-7 0 -13 -7.5t-8 -32.5h-116q-5 79 25.5 122.5t87.5 43.5q16 0 28 -2t22.5 -6t21 -9t23.5 -12q8 -5 17 -10t19 -5q6 0 12 7.5t8 32.5h117q5 -79 -26 -122t-88 -43z" />
    <glyph glyph-name="adieresis" unicode="&#xe4;" 
d="M547 -14q-48 0 -76.5 16.5t-43.5 41.5q-37 -29 -87 -44t-107 -15q-47 0 -86 9t-67.5 30t-44.5 54.5t-16 82.5q0 46 19 78t52 53t79 33t100 19q40 5 66.5 7.5t42 5t21.5 6t6 10.5t-2.5 13t-10.5 11t-23.5 8t-42.5 3q-48 0 -81 -16t-56 -48l-130 84q42 60 109 92.5
t173 32.5q65 0 116 -13t85.5 -40.5t52.5 -71.5t18 -106v-139q0 -32 7 -40t17 -10q6 -2 16 -2q5 0 11 0.5t13 1.5v-133q-26 -6 -61.5 -10t-68.5 -4zM313 223q-42 -6 -58.5 -20t-16.5 -34q0 -23 14 -32.5t43 -9.5q45 0 68.5 12.5t34.5 32.5q2 3 3.5 11t3 17.5t2 18.5t0.5 14
q-24 -5 -50 -6t-44 -4zM233 557v167h171v-167h-171zM8 557v167h171v-167h-171z" />
    <glyph glyph-name="aring" unicode="&#xe5;" 
d="M547 -14q-48 0 -76.5 16.5t-43.5 41.5q-37 -29 -87 -44t-107 -15q-47 0 -86 9t-67.5 30t-44.5 54.5t-16 82.5q0 46 19 78t52 53t79 33t100 19q40 5 66.5 7.5t42 5t21.5 6t6 10.5t-2.5 13t-10.5 11t-23.5 8t-42.5 3q-48 0 -81 -16t-56 -48l-130 84q42 60 109 92.5
t173 32.5q65 0 116 -13t85.5 -40.5t52.5 -71.5t18 -106v-139q0 -32 7 -40t17 -10q6 -2 16 -2q5 0 11 0.5t13 1.5v-133q-26 -6 -61.5 -10t-68.5 -4zM313 223q-42 -6 -58.5 -20t-16.5 -34q0 -23 14 -32.5t43 -9.5q45 0 68.5 12.5t34.5 32.5q2 3 3.5 11t3 17.5t2 18.5t0.5 14
q-24 -5 -50 -6t-44 -4zM336 548q-27 0 -51 10t-41.5 28t-28 41.5t-10.5 50.5t10 51t28 42t42 28t51 10t51 -10t42 -28t28 -42t10 -51t-10.5 -50.5t-28 -41.5t-41.5 -28t-51 -10zM336 712q-14 0 -23.5 -10t-9.5 -24t9.5 -23.5t23.5 -9.5t23 9.5t9 23.5t-9 24t-23 10z" />
    <glyph glyph-name="ae" unicode="&#xe6;" horiz-adv-x="1005" 
d="M593 222q7 -58 30 -79.5t61 -21.5q45 0 61.5 18.5t25.5 60.5l212 -21q-12 -45 -34 -80.5t-57.5 -60.5t-85.5 -38.5t-118 -13.5q-53 0 -90 7.5t-62.5 19t-41.5 26t-26 28.5q-18 -18 -40.5 -33.5t-52 -26t-67.5 -16.5t-86 -6q-45 0 -82.5 10t-64 30.5t-41.5 52.5t-15 76
q0 45 16.5 76t44 51.5t63 32.5t73.5 19.5t75 13t68 12.5l30 7t19 7q-2 15 -16.5 25t-64.5 10q-92 0 -138 -64l-130 84q42 60 109 92.5t173 32.5q66 0 107.5 -17t61.5 -37q23 20 67 37t113 17q70 0 125.5 -19.5t93.5 -60.5t58 -103.5t19 -147.5h-393zM691 419q-75 0 -93 -72
h176q-9 39 -29 55.5t-54 16.5zM323 225q-51 -6 -69.5 -20t-18.5 -36q0 -45 65 -45q35 0 64.5 12.5t41.5 38.5q1 5 1.5 12t0.5 15t0.5 16t1.5 15q-16 -3 -39 -5t-48 -3z" />
    <glyph glyph-name="ccedilla" unicode="&#xe7;" horiz-adv-x="660" 
d="M340 -14q-159 0 -235 67.5t-76 215.5q0 150 80 217t227 67q56 0 106.5 -11t91 -36.5t68.5 -67.5t39 -103l-214 -18q-11 57 -32.5 75.5t-56.5 18.5q-21 0 -38.5 -6.5t-30 -23t-19.5 -44t-7 -69.5q0 -41 7 -67.5t20 -43t31 -23t39 -6.5q35 0 58 24t31 87l214 -18
q-13 -126 -90.5 -180.5t-212.5 -54.5zM194 -205q-45 0 -78.5 9.5t-55.5 20.5l44 95q41 -26 80 -26q12 0 18 1t6 8q0 10 -12 11.5t-39 1.5v130h87v-54q17 -2 34 -7.5t30.5 -16t21.5 -27t8 -38.5q0 -29 -11 -49t-30.5 -33.5t-45.5 -19.5t-57 -6z" />
    <glyph glyph-name="egrave" unicode="&#xe8;" horiz-adv-x="655" 
d="M239 222q8 -58 31 -79.5t65 -21.5q36 0 54 17.5t25 57.5l214 -21q-11 -43 -33 -78t-57.5 -59.5t-85.5 -38t-117 -13.5q-156 0 -231 68.5t-75 215.5q0 77 23 131t64 87.5t97.5 49t122.5 15.5q142 0 220.5 -79.5t76.5 -251.5h-394zM338 419q-40 0 -62 -18.5t-31 -53.5h177
q-9 40 -29.5 56t-54.5 16zM173 562h158l-81 190h-187z" />
    <glyph glyph-name="eacute" unicode="&#xe9;" horiz-adv-x="655" 
d="M239 222q8 -58 31 -79.5t65 -21.5q36 0 54 17.5t25 57.5l214 -21q-11 -43 -33 -78t-57.5 -59.5t-85.5 -38t-117 -13.5q-156 0 -231 68.5t-75 215.5q0 77 23 131t64 87.5t97.5 49t122.5 15.5q142 0 220.5 -79.5t76.5 -251.5h-394zM338 419q-40 0 -62 -18.5t-31 -53.5h177
q-9 40 -29.5 56t-54.5 16zM397 557l118 183h-188l-88 -183h158z" />
    <glyph glyph-name="ecircumflex" unicode="&#xea;" horiz-adv-x="655" 
d="M239 222q8 -58 31 -79.5t65 -21.5q36 0 54 17.5t25 57.5l214 -21q-11 -43 -33 -78t-57.5 -59.5t-85.5 -38t-117 -13.5q-156 0 -231 68.5t-75 215.5q0 77 23 131t64 87.5t97.5 49t122.5 15.5q142 0 220.5 -79.5t76.5 -251.5h-394zM338 419q-40 0 -62 -18.5t-31 -53.5h177
q-9 40 -29.5 56t-54.5 16zM250 556h155l-138 182h-120l-138 -182h155l43 57z" />
    <glyph glyph-name="edieresis" unicode="&#xeb;" horiz-adv-x="655" 
d="M239 222q8 -58 31 -79.5t65 -21.5q36 0 54 17.5t25 57.5l214 -21q-11 -43 -33 -78t-57.5 -59.5t-85.5 -38t-117 -13.5q-156 0 -231 68.5t-75 215.5q0 77 23 131t64 87.5t97.5 49t122.5 15.5q142 0 220.5 -79.5t76.5 -251.5h-394zM338 419q-40 0 -62 -18.5t-31 -53.5h177
q-9 40 -29.5 56t-54.5 16zM233 557v167h171v-167h-171zM8 557v167h171v-167h-171z" />
    <glyph glyph-name="igrave" unicode="&#xec;" horiz-adv-x="330" 
d="M59 -9v557h211v-557h-211zM173 560l-110 190h187l81 -190h-158z" />
    <glyph glyph-name="iacute" unicode="&#xed;" horiz-adv-x="330" 
d="M59 -9v557h211v-557h-211zM233 555h-158l88 183h188z" />
    <glyph glyph-name="icircumflex" unicode="&#xee;" horiz-adv-x="330" 
d="M59 -9v557h211v-557h-211zM250 554l-43 57l-43 -57h-155l138 182h120l138 -182h-155z" />
    <glyph glyph-name="idieresis" unicode="&#xef;" horiz-adv-x="330" 
d="M59 -9v557h211v-557h-211zM233 555v167h171v-167h-171zM8 555v167h171v-167h-171z" />
    <glyph glyph-name="ntilde" unicode="&#xf1;" horiz-adv-x="704" 
d="M436 -9v322q0 45 -19 64t-54 19q-38 0 -64.5 -21.5t-28.5 -63.5q-1 -7 -1 -18v-24v-65v-73q0 -38 0.5 -69.5t0.5 -51.5v-19h-212v557h212v-50q32 26 72.5 40.5t94.5 14.5q111 0 160.5 -53t49.5 -164v-345h-211zM429 556q-16 0 -27.5 2t-22 5.5t-21.5 9l-24 11.5l-16 10
t-19 5q-7 0 -13 -7.5t-8 -32.5h-116q-5 79 25.5 122.5t87.5 43.5q16 0 28 -2t22.5 -6t21 -9t23.5 -12q8 -5 17 -10t19 -5q6 0 12 7.5t8 32.5h117q5 -79 -26 -122t-88 -43z" />
    <glyph glyph-name="ograve" unicode="&#xf2;" horiz-adv-x="677" 
d="M338 -14q-158 0 -233.5 69.5t-75.5 213.5t75.5 214t234.5 70q309 0 309 -284q0 -144 -78.5 -213.5t-231.5 -69.5zM339 411q-21 0 -39 -6.5t-31 -23t-20 -43.5t-7 -69t7.5 -69.5t20 -43t30 -22t38.5 -6.5t39 6.5t31 22.5t20.5 43.5t7.5 68.5q0 42 -7.5 69.5t-20 43.5
t-30.5 22.5t-39 6.5zM173 562h158l-81 190h-187z" />
    <glyph glyph-name="oacute" unicode="&#xf3;" horiz-adv-x="677" 
d="M338 -14q-158 0 -233.5 69.5t-75.5 213.5t75.5 214t234.5 70q309 0 309 -284q0 -144 -78.5 -213.5t-231.5 -69.5zM339 411q-21 0 -39 -6.5t-31 -23t-20 -43.5t-7 -69t7.5 -69.5t20 -43t30 -22t38.5 -6.5t39 6.5t31 22.5t20.5 43.5t7.5 68.5q0 42 -7.5 69.5t-20 43.5
t-30.5 22.5t-39 6.5zM401 557l118 183h-188l-88 -183h158z" />
    <glyph glyph-name="ocircumflex" unicode="&#xf4;" horiz-adv-x="677" 
d="M338 -14q-158 0 -233.5 69.5t-75.5 213.5t75.5 214t234.5 70q309 0 309 -284q0 -144 -78.5 -213.5t-231.5 -69.5zM339 411q-21 0 -39 -6.5t-31 -23t-20 -43.5t-7 -69t7.5 -69.5t20 -43t30 -22t38.5 -6.5t39 6.5t31 22.5t20.5 43.5t7.5 68.5q0 42 -7.5 69.5t-20 43.5
t-30.5 22.5t-39 6.5zM250 556h155l-138 182h-120l-138 -182h155l43 57z" />
    <glyph glyph-name="otilde" unicode="&#xf5;" horiz-adv-x="677" 
d="M338 -14q-158 0 -233.5 69.5t-75.5 213.5t75.5 214t234.5 70q309 0 309 -284q0 -144 -78.5 -213.5t-231.5 -69.5zM339 411q-21 0 -39 -6.5t-31 -23t-20 -43.5t-7 -69t7.5 -69.5t20 -43t30 -22t38.5 -6.5t39 6.5t31 22.5t20.5 43.5t7.5 68.5q0 42 -7.5 69.5t-20 43.5
t-30.5 22.5t-39 6.5zM284 554q-16 0 -27.5 2t-22 5.5t-21.5 9l-24 11.5l-16 10t-19 5q-7 0 -13 -7.5t-8 -32.5h-116q-5 79 25.5 122.5t87.5 43.5q16 0 28 -2t22.5 -6t21 -9t23.5 -12q8 -5 17 -10t19 -5q6 0 12 7.5t8 32.5h117q5 -79 -26 -122t-88 -43z" />
    <glyph glyph-name="odieresis" unicode="&#xf6;" horiz-adv-x="677" 
d="M338 -14q-158 0 -233.5 69.5t-75.5 213.5t75.5 214t234.5 70q309 0 309 -284q0 -144 -78.5 -213.5t-231.5 -69.5zM339 411q-21 0 -39 -6.5t-31 -23t-20 -43.5t-7 -69t7.5 -69.5t20 -43t30 -22t38.5 -6.5t39 6.5t31 22.5t20.5 43.5t7.5 68.5q0 42 -7.5 69.5t-20 43.5
t-30.5 22.5t-39 6.5zM233 557v167h171v-167h-171zM8 557v167h171v-167h-171z" />
    <glyph glyph-name="oslash" unicode="&#xf8;" horiz-adv-x="677" 
d="M338 -14q-23 0 -44 2t-41 6l-36 -65h-118l6.5 11.5l15 27l17 31.5l13.5 25q-63 33 -92.5 94t-29.5 151q0 284 310 284q23 0 43.5 -2t39.5 -5q3 7 9 18l10 18t5 8h118l-40 -75q64 -33 94 -94t30 -152q0 -144 -78.5 -213.5t-231.5 -69.5zM423 336l-108 -203q10 -7 23 -7
q22 0 41 7t32.5 23.5t21 44t7.5 68.5t-17 67zM339 412q-23 0 -41.5 -6.5t-32 -23t-20.5 -44t-7 -69.5q0 -38 16 -61l24 46l31 59l30 56.5t21 38.5q-7 4 -21 4z" />
    <glyph glyph-name="ugrave" unicode="&#xf9;" horiz-adv-x="701" 
d="M429 -9v45q-29 -23 -71 -36.5t-96 -13.5q-111 0 -161 53t-50 162v347h212v-326q0 -45 18 -64t55 -19q39 0 65.5 23t27.5 62v42v66v74v69v52v21h212v-557h-212zM173 562h158l-81 190h-187z" />
    <glyph glyph-name="uacute" unicode="&#xfa;" horiz-adv-x="701" 
d="M429 -9v45q-29 -23 -71 -36.5t-96 -13.5q-111 0 -161 53t-50 162v347h212v-326q0 -45 18 -64t55 -19q39 0 65.5 23t27.5 62v42v66v74v69v52v21h212v-557h-212zM400 557l118 183h-188l-88 -183h158z" />
    <glyph glyph-name="ucircumflex" unicode="&#xfb;" horiz-adv-x="701" 
d="M429 -9v45q-29 -23 -71 -36.5t-96 -13.5q-111 0 -161 53t-50 162v347h212v-326q0 -45 18 -64t55 -19q39 0 65.5 23t27.5 62v42v66v74v69v52v21h212v-557h-212zM250 556h155l-138 182h-120l-138 -182h155l43 57z" />
    <glyph glyph-name="udieresis" unicode="&#xfc;" horiz-adv-x="701" 
d="M429 -9v45q-29 -23 -71 -36.5t-96 -13.5q-111 0 -161 53t-50 162v347h212v-326q0 -45 18 -64t55 -19q39 0 65.5 23t27.5 62v42v66v74v69v52v21h212v-557h-212zM362 557v167h171v-167h-171zM137 557v167h171v-167h-171z" />
    <glyph glyph-name="yacute" unicode="&#xfd;" horiz-adv-x="632" 
d="M326 225l5.5 23t2.5 12l95 288h216l-8 -21l-22 -56l-31.5 -80.5l-36.5 -95l-38 -98.5l-34.5 -91.5l-26.5 -74.5t-15 -47q-19 -45 -42 -77.5t-53.5 -54.5t-69 -32.5t-88.5 -10.5q-31 0 -54 2t-41 6t-33 10.5t-28 14.5l40 155q24 -20 51 -26.5t48 -6.5q14 0 27.5 8t21.5 27
l-223 549h225l105 -289q0 -2 0.5 -5.5t1.5 -8.5zM364 557l118 183h-188l-88 -183h158z" />
    <glyph glyph-name="ydieresis" unicode="&#xff;" horiz-adv-x="632" 
d="M326 225l5.5 23t2.5 12l95 288h216l-8 -21l-22 -56l-31.5 -80.5l-36.5 -95l-38 -98.5l-34.5 -91.5l-26.5 -74.5t-15 -47q-19 -45 -42 -77.5t-53.5 -54.5t-69 -32.5t-88.5 -10.5q-31 0 -54 2t-41 6t-33 10.5t-28 14.5l40 155q24 -20 51 -26.5t48 -6.5q14 0 27.5 8t21.5 27
l-223 549h225l105 -289q0 -2 0.5 -5.5t1.5 -8.5zM233 556v167h171v-167h-171zM8 556v167h171v-167h-171z" />
    </font>
</defs>
</svg>
